<svg width="886" height="269" viewBox="0 0 886 269" fill="none" xmlns="http://www.w3.org/2000/svg">
<rect width="886" height="269" fill="#282A36"/>
<g filter="url(#filter0_d)">
<rect x="9" y="7" width="862" height="245" fill="#282A36"/>
<path d="M305.219 95.9062H300L319 46.5H324.188L305.219 95.9062ZM323.969 95.9062H318.75L337.75 46.5H342.938L323.969 95.9062ZM305.219 160.906H300L319 111.5H324.188L305.219 160.906ZM323.969 160.906H318.75L337.75 111.5H342.938L323.969 160.906Z" fill="#6272A4"/>
<path d="M386 87.9688C384.896 89.5104 383.542 90.6771 381.938 91.4688C380.354 92.2604 378.51 92.6562 376.406 92.6562C372.281 92.6562 369.052 91.1667 366.719 88.1875C364.406 85.1875 363.25 81.25 363.25 76.375V75.7188C363.25 70.2812 364.406 65.8958 366.719 62.5625C369.052 59.2292 372.302 57.5625 376.469 57.5625C378.469 57.5625 380.229 57.9375 381.75 58.6875C383.292 59.4167 384.604 60.4792 385.688 61.875V48.0938L380.594 47.2188V43.25H385.688H391.844V87.1875L396.938 88.0625V92H386.5L386 87.9688ZM369.406 76.375C369.406 79.7708 370.104 82.5 371.5 84.5625C372.896 86.625 375.052 87.6562 377.969 87.6562C379.802 87.6562 381.344 87.2396 382.594 86.4062C383.844 85.5729 384.875 84.3958 385.688 82.875V67.1875C384.896 65.7708 383.865 64.6458 382.594 63.8125C381.323 62.9792 379.802 62.5625 378.031 62.5625C375.094 62.5625 372.917 63.7812 371.5 66.2188C370.104 68.6562 369.406 71.8229 369.406 75.7188V76.375ZM423.719 92C423.531 91.0833 423.385 90.2604 423.281 89.5312C423.177 88.8021 423.104 88.0729 423.062 87.3438C421.875 88.8646 420.385 90.1354 418.594 91.1562C416.823 92.1562 414.927 92.6562 412.906 92.6562C409.385 92.6562 406.708 91.8021 404.875 90.0938C403.042 88.3646 402.125 85.9375 402.125 82.8125C402.125 79.6042 403.417 77.1354 406 75.4062C408.604 73.6562 412.167 72.7812 416.688 72.7812H423.031V68.8438C423.031 66.8646 422.406 65.3021 421.156 64.1562C419.906 62.9896 418.167 62.4062 415.938 62.4062C414.396 62.4062 413.031 62.6042 411.844 63C410.677 63.3958 409.729 63.9375 409 64.625L408.344 68.1875H403.594V61.625C405.135 60.3958 407 59.4167 409.188 58.6875C411.375 57.9375 413.75 57.5625 416.312 57.5625C420.146 57.5625 423.25 58.5417 425.625 60.5C428 62.4583 429.188 65.2604 429.188 68.9062V85.1875C429.188 85.625 429.188 86.0521 429.188 86.4688C429.208 86.8854 429.24 87.3021 429.281 87.7188L431.781 88.0625V92H423.719ZM413.812 87.5C415.854 87.5 417.719 87.0104 419.406 86.0312C421.094 85.0521 422.302 83.875 423.031 82.5V76.9375H416.469C413.948 76.9375 411.948 77.5208 410.469 78.6875C409.01 79.8542 408.281 81.2708 408.281 82.9375C408.281 84.4167 408.74 85.5521 409.656 86.3438C410.573 87.1146 411.958 87.5 413.812 87.5ZM468.531 62.1562L465.5 62.625L452.625 97.1875C451.771 99.4583 450.542 101.438 448.938 103.125C447.333 104.812 445.177 105.656 442.469 105.656C441.99 105.656 441.365 105.594 440.594 105.469C439.823 105.365 439.229 105.26 438.812 105.156L439.438 100.312C439.312 100.292 439.677 100.312 440.531 100.375C441.406 100.438 441.958 100.469 442.188 100.469C443.5 100.469 444.562 99.8958 445.375 98.75C446.188 97.625 446.896 96.3229 447.5 94.8438L448.969 91.3438L437.812 62.6562L434.719 62.1562V58.1875H448.375V62.1562L444.562 62.7812L450.406 79.4688L451.531 83.7812H451.719L458.75 62.7812L454.906 62.1562V58.1875H468.531V62.1562ZM471.875 47.2188V43.25H483.125V87.1875L488.219 88.0625V92H471.875V88.0625L476.969 87.1875V48.0938L471.875 47.2188ZM508.344 92.6562C503.635 92.6562 499.885 91.0938 497.094 87.9688C494.323 84.8229 492.938 80.75 492.938 75.75V74.375C492.938 69.5625 494.365 65.5625 497.219 62.375C500.094 59.1667 503.49 57.5625 507.406 57.5625C511.948 57.5625 515.385 58.9375 517.719 61.6875C520.073 64.4375 521.25 68.1042 521.25 72.6875V76.5312H499.312L499.219 76.6875C499.281 79.9375 500.104 82.6146 501.688 84.7188C503.271 86.8021 505.49 87.8438 508.344 87.8438C510.427 87.8438 512.25 87.5521 513.812 86.9688C515.396 86.3646 516.76 85.5417 517.906 84.5L520.312 88.5C519.104 89.6667 517.5 90.6562 515.5 91.4688C513.521 92.2604 511.135 92.6562 508.344 92.6562ZM507.406 62.4062C505.344 62.4062 503.583 63.2812 502.125 65.0312C500.667 66.7604 499.771 68.9375 499.438 71.5625L499.5 71.7188H515.094V70.9062C515.094 68.4896 514.448 66.4688 513.156 64.8438C511.865 63.2188 509.948 62.4062 507.406 62.4062ZM526.438 88.0625L531.531 87.1875V63.0312L526.438 62.1562V58.1875H537.031L537.469 63.2188C538.594 61.4271 540 60.0417 541.688 59.0625C543.396 58.0625 545.333 57.5625 547.5 57.5625C551.146 57.5625 553.969 58.6354 555.969 60.7812C557.969 62.9062 558.969 66.1979 558.969 70.6562V87.1875L564.062 88.0625V92H547.719V88.0625L552.812 87.1875V70.7812C552.812 67.8021 552.219 65.6875 551.031 64.4375C549.865 63.1875 548.073 62.5625 545.656 62.5625C543.885 62.5625 542.312 62.9896 540.938 63.8438C539.583 64.6979 538.5 65.8646 537.688 67.3438V87.1875L542.781 88.0625V92H526.438V88.0625Z" fill="#BD93F9"/>
<path d="M479.656 153.094V157H475.438V153.094H479.656ZM488.125 157V124.188H490.469L490.875 128.375C495.062 125.583 499.167 124.188 503.188 124.188C511.167 124.188 515.156 127.635 515.156 134.531V157H511.875V134.438C511.875 129.562 508.927 127.125 503.031 127.125C499.094 127.125 495.219 128.51 491.406 131.281V157H488.125ZM538.406 124.188C547.385 124.188 551.875 129.156 551.875 139.094C551.875 139.802 551.854 140.542 551.812 141.312H526.906C526.906 149.896 531.448 154.188 540.531 154.188C544.26 154.188 547.573 153.667 550.469 152.625V155.438C547.573 156.479 544.26 157 540.531 157C529.26 157 523.625 151.406 523.625 140.219C523.625 129.531 528.552 124.188 538.406 124.188ZM526.906 138.375H548.719C548.594 130.75 545.156 126.938 538.406 126.938C531.115 126.938 527.281 130.75 526.906 138.375ZM560.188 118.875H562.5L563.094 124.188H572.938V127H563.375V147.719C563.375 152.031 564.958 154.188 568.125 154.188H572.938V157H568.188C562.854 157 560.188 154.052 560.188 148.156V118.875Z" fill="#8BE9FD"/>
<path d="M179.013 205.258L165.688 199.193V198.156L180.384 204.801V205.68L165.688 212.342V211.305L179.013 205.258ZM206.383 209.354H193.85L191.002 217H189.965L199.545 191.406H200.705L210.286 217H209.248L206.383 209.354ZM194.202 208.404H206.032L200.125 192.549L194.202 208.404ZM224.508 211.498L225.545 215.594L231.117 197.98H232.084L237.621 215.594L238.693 211.498L242.56 197.98H243.668L238.131 217H237.181L232.488 202.709L231.592 199.299L230.625 202.709L226.002 217H225.053L219.533 197.98H220.623L224.508 211.498ZM254.461 217.352C252.926 217.352 251.514 216.941 250.225 216.121C248.948 215.289 247.946 214.152 247.219 212.711C246.493 211.27 246.129 209.67 246.129 207.912V207.121C246.129 205.363 246.481 203.752 247.184 202.287C247.887 200.822 248.854 199.68 250.085 198.859C251.315 198.039 252.657 197.629 254.11 197.629C256.231 197.629 257.965 198.385 259.313 199.896C260.661 201.408 261.335 203.395 261.335 205.855V206.857H247.079V207.895C247.079 209.441 247.401 210.877 248.045 212.201C248.702 213.514 249.598 214.545 250.735 215.295C251.883 216.045 253.126 216.42 254.461 216.42C255.739 216.42 256.823 216.209 257.713 215.787C258.616 215.354 259.413 214.691 260.104 213.801L260.772 214.275C259.354 216.326 257.251 217.352 254.461 217.352ZM254.11 198.578C252.258 198.578 250.688 199.27 249.399 200.652C248.11 202.023 247.354 203.775 247.131 205.908H260.385V205.68C260.385 204.391 260.11 203.195 259.559 202.094C259.02 200.98 258.27 200.119 257.309 199.51C256.36 198.889 255.294 198.578 254.11 198.578ZM279.581 207.666C279.581 210.631 278.943 212.986 277.665 214.732C276.388 216.479 274.648 217.352 272.445 217.352C271.015 217.352 269.738 217.059 268.613 216.473C267.488 215.875 266.603 215.049 265.958 213.994V217H265.009V190H265.958V201.443C266.626 200.189 267.505 199.24 268.595 198.596C269.697 197.951 270.968 197.629 272.409 197.629C274.636 197.629 276.388 198.484 277.665 200.195C278.943 201.895 279.581 204.285 279.581 207.367V207.666ZM278.597 207.297C278.597 204.566 278.052 202.434 276.962 200.898C275.884 199.352 274.372 198.578 272.427 198.578C270.833 198.578 269.48 198.988 268.366 199.809C267.265 200.629 266.462 201.848 265.958 203.465V212.184C266.462 213.531 267.265 214.574 268.366 215.312C269.48 216.039 270.845 216.402 272.462 216.402C274.419 216.402 275.931 215.623 276.997 214.064C278.064 212.506 278.597 210.25 278.597 207.297ZM295.771 212.342C295.771 210.033 293.803 208.463 289.865 207.631C287.498 207.127 285.852 206.482 284.926 205.697C284 204.9 283.537 203.811 283.537 202.428C283.537 201.033 284.123 199.885 285.295 198.982C286.479 198.08 288.014 197.629 289.9 197.629C291.951 197.629 293.598 198.121 294.84 199.105C296.082 200.078 296.703 201.396 296.703 203.061H295.736C295.736 201.783 295.197 200.717 294.119 199.861C293.041 199.006 291.635 198.578 289.9 198.578C288.236 198.578 286.918 198.941 285.945 199.668C284.973 200.395 284.486 201.303 284.486 202.393C284.486 203.248 284.668 203.922 285.031 204.414C285.395 204.895 285.986 205.334 286.807 205.732C287.627 206.119 288.822 206.494 290.393 206.857C291.963 207.221 293.205 207.648 294.119 208.141C295.033 208.633 295.695 209.219 296.105 209.898C296.516 210.566 296.721 211.387 296.721 212.359C296.721 213.859 296.105 215.066 294.875 215.98C293.645 216.895 292.033 217.352 290.041 217.352C287.908 217.352 286.186 216.871 284.873 215.91C283.572 214.938 282.922 213.689 282.922 212.166H283.871C283.965 213.502 284.551 214.545 285.629 215.295C286.719 216.033 288.189 216.402 290.041 216.402C291.74 216.402 293.117 216.01 294.172 215.225C295.238 214.428 295.771 213.467 295.771 212.342ZM302.434 217H301.485V197.98H302.434V217ZM300.993 192.039C300.993 191.77 301.087 191.541 301.274 191.354C301.462 191.154 301.69 191.055 301.96 191.055C302.229 191.055 302.458 191.154 302.645 191.354C302.844 191.541 302.944 191.77 302.944 192.039C302.944 192.309 302.844 192.537 302.645 192.725C302.458 192.912 302.229 193.006 301.96 193.006C301.69 193.006 301.462 192.912 301.274 192.725C301.087 192.537 300.993 192.309 300.993 192.039ZM310.081 192.848V197.98H314.406V198.947H310.081V212.447C310.081 213.795 310.298 214.791 310.732 215.436C311.177 216.08 311.915 216.402 312.947 216.402C313.462 216.402 314.089 216.35 314.828 216.244L314.986 217.141C314.599 217.281 313.937 217.352 312.999 217.352C311.617 217.352 310.626 216.971 310.029 216.209C309.431 215.436 309.126 214.223 309.115 212.57V198.947H305.599V197.98H309.115V192.848H310.081ZM325.463 217.352C323.928 217.352 322.516 216.941 321.227 216.121C319.949 215.289 318.947 214.152 318.221 212.711C317.494 211.27 317.131 209.67 317.131 207.912V207.121C317.131 205.363 317.483 203.752 318.186 202.287C318.889 200.822 319.856 199.68 321.086 198.859C322.317 198.039 323.658 197.629 325.112 197.629C327.233 197.629 328.967 198.385 330.315 199.896C331.662 201.408 332.336 203.395 332.336 205.855V206.857H318.08V207.895C318.08 209.441 318.403 210.877 319.047 212.201C319.703 213.514 320.6 214.545 321.737 215.295C322.885 216.045 324.127 216.42 325.463 216.42C326.74 216.42 327.824 216.209 328.715 215.787C329.617 215.354 330.414 214.691 331.106 213.801L331.774 214.275C330.356 216.326 328.252 217.352 325.463 217.352ZM325.112 198.578C323.26 198.578 321.69 199.27 320.401 200.652C319.112 202.023 318.356 203.775 318.133 205.908H331.387V205.68C331.387 204.391 331.112 203.195 330.561 202.094C330.022 200.98 329.272 200.119 328.311 199.51C327.362 198.889 326.295 198.578 325.112 198.578ZM345.38 217V198.947H342.076V197.98H345.38V195.203C345.392 193.445 345.832 192.08 346.699 191.107C347.578 190.123 348.797 189.631 350.355 189.631C351.222 189.631 351.972 189.73 352.605 189.93L352.464 190.844C351.855 190.668 351.158 190.58 350.373 190.58C349.119 190.58 348.129 190.99 347.402 191.811C346.687 192.619 346.33 193.773 346.33 195.273V197.98H351.357V198.947H346.33V217H345.38ZM353.133 207.121C353.133 205.305 353.479 203.676 354.17 202.234C354.873 200.781 355.858 199.65 357.123 198.842C358.401 198.033 359.842 197.629 361.448 197.629C363.041 197.629 364.471 198.021 365.737 198.807C367.002 199.592 367.987 200.705 368.69 202.146C369.405 203.588 369.768 205.211 369.78 207.016V207.859C369.78 209.688 369.434 211.322 368.742 212.764C368.051 214.205 367.067 215.33 365.789 216.139C364.524 216.947 363.088 217.352 361.483 217.352C359.877 217.352 358.436 216.953 357.159 216.156C355.893 215.359 354.909 214.246 354.205 212.816C353.502 211.375 353.145 209.758 353.133 207.965V207.121ZM354.082 207.859C354.082 209.441 354.393 210.895 355.014 212.219C355.647 213.531 356.52 214.557 357.633 215.295C358.758 216.033 360.041 216.402 361.483 216.402C363.651 216.402 365.414 215.588 366.774 213.959C368.145 212.33 368.83 210.232 368.83 207.666V207.121C368.83 205.562 368.514 204.121 367.881 202.797C367.248 201.473 366.369 200.441 365.244 199.703C364.131 198.953 362.866 198.578 361.448 198.578C359.28 198.578 357.51 199.404 356.139 201.057C354.768 202.709 354.082 204.789 354.082 207.297V207.859ZM382.067 198.666L380.837 198.561C379.22 198.561 377.866 199.088 376.776 200.143C375.687 201.186 374.972 202.65 374.632 204.537V217H373.683V197.98H374.632V201.936C375.148 200.611 375.921 199.562 376.952 198.789C377.983 198.016 379.278 197.629 380.837 197.629C381.388 197.629 381.833 197.693 382.173 197.822L382.067 198.666ZM392.036 207.297C392.036 204.262 392.674 201.895 393.952 200.195C395.229 198.484 396.981 197.629 399.208 197.629C400.637 197.629 401.897 197.951 402.987 198.596C404.088 199.24 404.979 200.201 405.659 201.479V190H406.608V217H405.659V213.959C405.014 215.037 404.129 215.875 403.004 216.473C401.879 217.059 400.602 217.352 399.172 217.352C396.969 217.352 395.229 216.479 393.952 214.732C392.674 212.986 392.036 210.59 392.036 207.543V207.297ZM393.02 207.666C393.02 210.361 393.553 212.494 394.62 214.064C395.686 215.623 397.198 216.402 399.155 216.402C400.725 216.402 402.067 216.057 403.18 215.365C404.293 214.662 405.12 213.637 405.659 212.289V203.377C404.569 200.178 402.413 198.578 399.19 198.578C397.245 198.578 395.727 199.346 394.637 200.881C393.559 202.416 393.02 204.678 393.02 207.666ZM424.204 217C423.97 216.191 423.853 215.031 423.853 213.52C423.103 214.738 422.077 215.682 420.777 216.35C419.476 217.018 418.005 217.352 416.364 217.352C414.607 217.352 413.189 216.877 412.111 215.928C411.044 214.967 410.511 213.719 410.511 212.184C410.511 210.438 411.296 209.043 412.866 208C414.448 206.945 416.546 206.406 419.159 206.383H423.853V203.605C423.853 202.012 423.349 200.775 422.341 199.896C421.345 199.018 419.915 198.578 418.052 198.578C416.318 198.578 414.87 199.023 413.71 199.914C412.55 200.805 411.97 201.906 411.97 203.219L411.021 203.184C411.021 201.637 411.7 200.324 413.06 199.246C414.419 198.168 416.083 197.629 418.052 197.629C420.103 197.629 421.732 198.145 422.939 199.176C424.146 200.195 424.767 201.637 424.802 203.5V212.588C424.802 214.674 424.966 216.092 425.294 216.842V217H424.204ZM416.364 216.42C418.146 216.42 419.675 216.021 420.952 215.225C422.241 214.428 423.208 213.309 423.853 211.867V207.35H419.458C416.739 207.35 414.659 207.889 413.218 208.967C412.046 209.846 411.46 210.941 411.46 212.254C411.46 213.414 411.923 214.398 412.849 215.207C413.775 216.016 414.947 216.42 416.364 216.42ZM435.754 215.523L435.877 215.172L442.451 197.98H443.506L434.998 220.305L434.576 221.359C433.662 223.574 432.15 224.682 430.041 224.682C429.361 224.682 428.893 224.617 428.635 224.488L428.617 223.592C428.992 223.697 429.42 223.75 429.9 223.75C430.896 223.75 431.723 223.457 432.379 222.871C433.035 222.297 433.603 221.354 434.084 220.041L435.244 216.895L427.668 197.98H428.705L435.754 215.523ZM447.585 217H446.635V190H447.585V217ZM459.943 217.352C458.408 217.352 456.995 216.941 455.706 216.121C454.429 215.289 453.427 214.152 452.701 212.711C451.974 211.27 451.611 209.67 451.611 207.912V207.121C451.611 205.363 451.962 203.752 452.665 202.287C453.369 200.822 454.335 199.68 455.566 198.859C456.796 198.039 458.138 197.629 459.591 197.629C461.712 197.629 463.447 198.385 464.794 199.896C466.142 201.408 466.816 203.395 466.816 205.855V206.857H452.56V207.895C452.56 209.441 452.882 210.877 453.527 212.201C454.183 213.514 455.079 214.545 456.216 215.295C457.365 216.045 458.607 216.42 459.943 216.42C461.22 216.42 462.304 216.209 463.195 215.787C464.097 215.354 464.894 214.691 465.585 213.801L466.253 214.275C464.835 216.326 462.732 217.352 459.943 217.352ZM459.591 198.578C457.74 198.578 456.169 199.27 454.88 200.652C453.591 202.023 452.835 203.775 452.613 205.908H465.867V205.68C465.867 204.391 465.591 203.195 465.04 202.094C464.501 200.98 463.751 200.119 462.79 199.51C461.841 198.889 460.775 198.578 459.591 198.578ZM471.475 202.41C472.096 200.934 473.01 199.768 474.217 198.912C475.424 198.057 476.76 197.629 478.225 197.629C480.264 197.629 481.775 198.209 482.76 199.369C483.756 200.518 484.26 202.258 484.272 204.59V217H483.322V204.555C483.311 202.516 482.895 201.01 482.074 200.037C481.254 199.053 479.953 198.561 478.172 198.561C476.531 198.561 475.108 199.146 473.9 200.318C472.705 201.479 471.897 202.979 471.475 204.818V217H470.525V197.98H471.475V202.41ZM487.102 196.768L486.452 196.205C487.401 194.986 487.917 193.727 487.999 192.426L488.016 190H488.966V192.057C488.919 193.92 488.298 195.49 487.102 196.768ZM502.783 212.342C502.783 210.033 500.814 208.463 496.876 207.631C494.509 207.127 492.863 206.482 491.937 205.697C491.011 204.9 490.548 203.811 490.548 202.428C490.548 201.033 491.134 199.885 492.306 198.982C493.49 198.08 495.025 197.629 496.912 197.629C498.962 197.629 500.609 198.121 501.851 199.105C503.093 200.078 503.714 201.396 503.714 203.061H502.748C502.748 201.783 502.209 200.717 501.13 199.861C500.052 199.006 498.646 198.578 496.912 198.578C495.248 198.578 493.929 198.941 492.957 199.668C491.984 200.395 491.498 201.303 491.498 202.393C491.498 203.248 491.679 203.922 492.043 204.414C492.406 204.895 492.998 205.334 493.818 205.732C494.638 206.119 495.834 206.494 497.404 206.857C498.974 207.221 500.216 207.648 501.13 208.141C502.044 208.633 502.707 209.219 503.117 209.898C503.527 210.566 503.732 211.387 503.732 212.359C503.732 213.859 503.117 215.066 501.886 215.98C500.656 216.895 499.044 217.352 497.052 217.352C494.919 217.352 493.197 216.871 491.884 215.91C490.584 214.938 489.933 213.689 489.933 212.166H490.882C490.976 213.502 491.562 214.545 492.64 215.295C493.73 216.033 495.201 216.402 497.052 216.402C498.751 216.402 500.128 216.01 501.183 215.225C502.25 214.428 502.783 213.467 502.783 212.342ZM519.571 211.498L520.608 215.594L526.181 197.98H527.147L532.685 215.594L533.757 211.498L537.624 197.98H538.731L533.194 217H532.245L527.552 202.709L526.655 199.299L525.688 202.709L521.065 217H520.116L514.597 197.98H515.686L519.571 211.498ZM549.525 217.352C547.99 217.352 546.578 216.941 545.289 216.121C544.011 215.289 543.009 214.152 542.283 212.711C541.556 211.27 541.193 209.67 541.193 207.912V207.121C541.193 205.363 541.545 203.752 542.248 202.287C542.951 200.822 543.918 199.68 545.148 198.859C546.379 198.039 547.72 197.629 549.174 197.629C551.295 197.629 553.029 198.385 554.377 199.896C555.724 201.408 556.398 203.395 556.398 205.855V206.857H542.142V207.895C542.142 209.441 542.465 210.877 543.109 212.201C543.765 213.514 544.662 214.545 545.799 215.295C546.947 216.045 548.189 216.42 549.525 216.42C550.802 216.42 551.886 216.209 552.777 215.787C553.679 215.354 554.476 214.691 555.168 213.801L555.836 214.275C554.418 216.326 552.314 217.352 549.525 217.352ZM549.174 198.578C547.322 198.578 545.752 199.27 544.463 200.652C543.174 202.023 542.418 203.775 542.195 205.908H555.449V205.68C555.449 204.391 555.174 203.195 554.623 202.094C554.084 200.98 553.334 200.119 552.373 199.51C551.424 198.889 550.357 198.578 549.174 198.578ZM574.645 207.666C574.645 210.631 574.006 212.986 572.729 214.732C571.452 216.479 569.711 217.352 567.508 217.352C566.079 217.352 564.801 217.059 563.676 216.473C562.551 215.875 561.666 215.049 561.022 213.994V217H560.073V190H561.022V201.443C561.69 200.189 562.569 199.24 563.659 198.596C564.76 197.951 566.032 197.629 567.473 197.629C569.7 197.629 571.452 198.484 572.729 200.195C574.006 201.895 574.645 204.285 574.645 207.367V207.666ZM573.661 207.297C573.661 204.566 573.116 202.434 572.026 200.898C570.948 199.352 569.436 198.578 567.491 198.578C565.897 198.578 564.543 198.988 563.43 199.809C562.329 200.629 561.526 201.848 561.022 203.465V212.184C561.526 213.531 562.329 214.574 563.43 215.312C564.543 216.039 565.909 216.402 567.526 216.402C569.483 216.402 570.995 215.623 572.061 214.064C573.127 212.506 573.661 210.25 573.661 207.297ZM585.421 205.768H577.159V204.818H585.421V205.768ZM603.615 207.666C603.615 210.631 602.976 212.986 601.699 214.732C600.422 216.479 598.682 217.352 596.478 217.352C595.037 217.352 593.754 217.059 592.629 216.473C591.504 215.887 590.625 215.078 589.992 214.047V224.312H589.043V197.98H589.992V201.373C590.648 200.166 591.533 199.24 592.646 198.596C593.76 197.951 595.025 197.629 596.443 197.629C598.67 197.629 600.422 198.484 601.699 200.195C602.976 201.895 603.615 204.285 603.615 207.367V207.666ZM602.648 207.297C602.648 204.566 602.103 202.434 601.014 200.898C599.935 199.352 598.418 198.578 596.461 198.578C594.867 198.578 593.514 198.994 592.4 199.826C591.287 200.646 590.484 201.83 589.992 203.377V212.271C590.484 213.584 591.287 214.604 592.4 215.33C593.525 216.045 594.891 216.402 596.496 216.402C598.441 216.402 599.953 215.629 601.031 214.082C602.109 212.535 602.648 210.273 602.648 207.297ZM606.639 207.121C606.639 205.305 606.985 203.676 607.676 202.234C608.38 200.781 609.364 199.65 610.63 198.842C611.907 198.033 613.348 197.629 614.954 197.629C616.547 197.629 617.977 198.021 619.243 198.807C620.508 199.592 621.493 200.705 622.196 202.146C622.911 203.588 623.274 205.211 623.286 207.016V207.859C623.286 209.688 622.94 211.322 622.249 212.764C621.557 214.205 620.573 215.33 619.296 216.139C618.03 216.947 616.594 217.352 614.989 217.352C613.383 217.352 611.942 216.953 610.665 216.156C609.399 215.359 608.415 214.246 607.712 212.816C607.008 211.375 606.651 209.758 606.639 207.965V207.121ZM607.589 207.859C607.589 209.441 607.899 210.895 608.52 212.219C609.153 213.531 610.026 214.557 611.139 215.295C612.264 216.033 613.547 216.402 614.989 216.402C617.157 216.402 618.921 215.588 620.28 213.959C621.651 212.33 622.337 210.232 622.337 207.666V207.121C622.337 205.562 622.02 204.121 621.387 202.797C620.755 201.473 619.876 200.441 618.751 199.703C617.637 198.953 616.372 198.578 614.954 198.578C612.786 198.578 611.016 199.404 609.645 201.057C608.274 202.709 607.589 204.789 607.589 207.297V207.859ZM635.574 198.666L634.343 198.561C632.726 198.561 631.372 199.088 630.283 200.143C629.193 201.186 628.478 202.65 628.138 204.537V217H627.189V197.98H628.138V201.936C628.654 200.611 629.427 199.562 630.458 198.789C631.49 198.016 632.784 197.629 634.343 197.629C634.894 197.629 635.339 197.693 635.679 197.822L635.574 198.666ZM641.533 192.848V197.98H645.857V198.947H641.533V212.447C641.533 213.795 641.75 214.791 642.184 215.436C642.629 216.08 643.367 216.402 644.398 216.402C644.914 216.402 645.541 216.35 646.279 216.244L646.438 217.141C646.051 217.281 645.389 217.352 644.451 217.352C643.068 217.352 642.078 216.971 641.48 216.209C640.883 215.436 640.578 214.223 640.566 212.57V198.947H637.051V197.98H640.566V192.848H641.533ZM651.518 217V198.947H648.214V197.98H651.518V195.203C651.53 193.445 651.969 192.08 652.837 191.107C653.716 190.123 654.934 189.631 656.493 189.631C657.36 189.631 658.11 189.73 658.743 189.93L658.602 190.844C657.993 190.668 657.296 190.58 656.51 190.58C655.257 190.58 654.266 190.99 653.54 191.811C652.825 192.619 652.468 193.773 652.468 195.273V197.98H657.495V198.947H652.468V217H651.518ZM659.271 207.121C659.271 205.305 659.617 203.676 660.308 202.234C661.011 200.781 661.996 199.65 663.261 198.842C664.539 198.033 665.98 197.629 667.585 197.629C669.179 197.629 670.609 198.021 671.875 198.807C673.14 199.592 674.125 200.705 674.828 202.146C675.542 203.588 675.906 205.211 675.917 207.016V207.859C675.917 209.688 675.572 211.322 674.88 212.764C674.189 214.205 673.205 215.33 671.927 216.139C670.662 216.947 669.226 217.352 667.621 217.352C666.015 217.352 664.574 216.953 663.296 216.156C662.031 215.359 661.046 214.246 660.343 212.816C659.64 211.375 659.283 209.758 659.271 207.965V207.121ZM660.22 207.859C660.22 209.441 660.531 210.895 661.152 212.219C661.785 213.531 662.658 214.557 663.771 215.295C664.896 216.033 666.179 216.402 667.621 216.402C669.789 216.402 671.552 215.588 672.912 213.959C674.283 212.33 674.968 210.232 674.968 207.666V207.121C674.968 205.562 674.652 204.121 674.019 202.797C673.386 201.473 672.507 200.441 671.382 199.703C670.269 198.953 669.003 198.578 667.585 198.578C665.417 198.578 663.648 199.404 662.277 201.057C660.906 202.709 660.22 204.789 660.22 207.297V207.859ZM680.998 217H680.049V190H680.998V217ZM687.696 217H686.747V197.98H687.696V217ZM686.255 192.039C686.255 191.77 686.349 191.541 686.536 191.354C686.724 191.154 686.952 191.055 687.222 191.055C687.491 191.055 687.72 191.154 687.907 191.354C688.106 191.541 688.206 191.77 688.206 192.039C688.206 192.309 688.106 192.537 687.907 192.725C687.72 192.912 687.491 193.006 687.222 193.006C686.952 193.006 686.724 192.912 686.536 192.725C686.349 192.537 686.255 192.309 686.255 192.039ZM691.775 207.121C691.775 205.305 692.121 203.676 692.812 202.234C693.515 200.781 694.5 199.65 695.765 198.842C697.043 198.033 698.484 197.629 700.089 197.629C701.683 197.629 703.113 198.021 704.379 198.807C705.644 199.592 706.629 200.705 707.332 202.146C708.047 203.588 708.41 205.211 708.422 207.016V207.859C708.422 209.688 708.076 211.322 707.384 212.764C706.693 214.205 705.709 215.33 704.431 216.139C703.166 216.947 701.73 217.352 700.125 217.352C698.519 217.352 697.078 216.953 695.8 216.156C694.535 215.359 693.55 214.246 692.847 212.816C692.144 211.375 691.787 209.758 691.775 207.965V207.121ZM692.724 207.859C692.724 209.441 693.035 210.895 693.656 212.219C694.289 213.531 695.162 214.557 696.275 215.295C697.4 216.033 698.683 216.402 700.125 216.402C702.293 216.402 704.056 215.588 705.416 213.959C706.787 212.33 707.472 210.232 707.472 207.666V207.121C707.472 205.562 707.156 204.121 706.523 202.797C705.89 201.473 705.011 200.441 703.886 199.703C702.773 198.953 701.507 198.578 700.089 198.578C697.922 198.578 696.152 199.404 694.781 201.057C693.41 202.709 692.724 204.789 692.724 207.297V207.859ZM711.885 216.139C711.885 215.869 711.979 215.641 712.166 215.453C712.354 215.254 712.582 215.154 712.852 215.154C713.121 215.154 713.35 215.254 713.537 215.453C713.737 215.641 713.836 215.869 713.836 216.139C713.836 216.408 713.737 216.637 713.537 216.824C713.35 217.012 713.121 217.105 712.852 217.105C712.582 217.105 712.354 217.012 712.166 216.824C711.979 216.637 711.885 216.408 711.885 216.139Z" fill="white"/>
</g>
<defs>
<filter id="filter0_d" x="0" y="0" width="886" height="269" filterUnits="userSpaceOnUse" color-interpolation-filters="sRGB">
<feFlood flood-opacity="0" result="BackgroundImageFix"/>
<feColorMatrix in="SourceAlpha" type="matrix" values="0 0 0 0 0 0 0 0 0 0 0 0 0 0 0 0 0 0 127 0"/>
<feOffset dx="3" dy="5"/>
<feGaussianBlur stdDeviation="6"/>
<feColorMatrix type="matrix" values="0 0 0 0 0 0 0 0 0 0 0 0 0 0 0 0 0 0 0.25 0"/>
<feBlend mode="normal" in2="BackgroundImageFix" result="effect1_dropShadow"/>
<feBlend mode="normal" in="SourceGraphic" in2="effect1_dropShadow" result="shape"/>
</filter>
</defs>
</svg>
