<svg width="862" height="264" viewBox="0 0 862 264" fill="none" xmlns="http://www.w3.org/2000/svg">
<rect width="862" height="264" fill="#282A36"/>
<rect y="22" width="862" height="242" fill="#282A36"/>
<path d="M296.219 102.906H291L310 53.5H315.188L296.219 102.906ZM314.969 102.906H309.75L328.75 53.5H333.938L314.969 102.906ZM296.219 167.906H291L310 118.5H315.188L296.219 167.906ZM314.969 167.906H309.75L328.75 118.5H333.938L314.969 167.906Z" fill="#6272A4"/>
<path d="M377 94.9688C375.896 96.5104 374.542 97.6771 372.938 98.4688C371.354 99.2604 369.51 99.6562 367.406 99.6562C363.281 99.6562 360.052 98.1667 357.719 95.1875C355.406 92.1875 354.25 88.25 354.25 83.375V82.7188C354.25 77.2812 355.406 72.8958 357.719 69.5625C360.052 66.2292 363.302 64.5625 367.469 64.5625C369.469 64.5625 371.229 64.9375 372.75 65.6875C374.292 66.4167 375.604 67.4792 376.688 68.875V55.0938L371.594 54.2188V50.25H376.688H382.844V94.1875L387.938 95.0625V99H377.5L377 94.9688ZM360.406 83.375C360.406 86.7708 361.104 89.5 362.5 91.5625C363.896 93.625 366.052 94.6562 368.969 94.6562C370.802 94.6562 372.344 94.2396 373.594 93.4062C374.844 92.5729 375.875 91.3958 376.688 89.875V74.1875C375.896 72.7708 374.865 71.6458 373.594 70.8125C372.323 69.9792 370.802 69.5625 369.031 69.5625C366.094 69.5625 363.917 70.7812 362.5 73.2188C361.104 75.6562 360.406 78.8229 360.406 82.7188V83.375ZM414.719 99C414.531 98.0833 414.385 97.2604 414.281 96.5312C414.177 95.8021 414.104 95.0729 414.062 94.3438C412.875 95.8646 411.385 97.1354 409.594 98.1562C407.823 99.1562 405.927 99.6562 403.906 99.6562C400.385 99.6562 397.708 98.8021 395.875 97.0938C394.042 95.3646 393.125 92.9375 393.125 89.8125C393.125 86.6042 394.417 84.1354 397 82.4062C399.604 80.6562 403.167 79.7812 407.688 79.7812H414.031V75.8438C414.031 73.8646 413.406 72.3021 412.156 71.1562C410.906 69.9896 409.167 69.4062 406.938 69.4062C405.396 69.4062 404.031 69.6042 402.844 70C401.677 70.3958 400.729 70.9375 400 71.625L399.344 75.1875H394.594V68.625C396.135 67.3958 398 66.4167 400.188 65.6875C402.375 64.9375 404.75 64.5625 407.312 64.5625C411.146 64.5625 414.25 65.5417 416.625 67.5C419 69.4583 420.188 72.2604 420.188 75.9062V92.1875C420.188 92.625 420.188 93.0521 420.188 93.4688C420.208 93.8854 420.24 94.3021 420.281 94.7188L422.781 95.0625V99H414.719ZM404.812 94.5C406.854 94.5 408.719 94.0104 410.406 93.0312C412.094 92.0521 413.302 90.875 414.031 89.5V83.9375H407.469C404.948 83.9375 402.948 84.5208 401.469 85.6875C400.01 86.8542 399.281 88.2708 399.281 89.9375C399.281 91.4167 399.74 92.5521 400.656 93.3438C401.573 94.1146 402.958 94.5 404.812 94.5ZM459.531 69.1562L456.5 69.625L443.625 104.188C442.771 106.458 441.542 108.438 439.938 110.125C438.333 111.812 436.177 112.656 433.469 112.656C432.99 112.656 432.365 112.594 431.594 112.469C430.823 112.365 430.229 112.26 429.812 112.156L430.438 107.312C430.312 107.292 430.677 107.312 431.531 107.375C432.406 107.438 432.958 107.469 433.188 107.469C434.5 107.469 435.562 106.896 436.375 105.75C437.188 104.625 437.896 103.323 438.5 101.844L439.969 98.3438L428.812 69.6562L425.719 69.1562V65.1875H439.375V69.1562L435.562 69.7812L441.406 86.4688L442.531 90.7812H442.719L449.75 69.7812L445.906 69.1562V65.1875H459.531V69.1562ZM462.875 54.2188V50.25H474.125V94.1875L479.219 95.0625V99H462.875V95.0625L467.969 94.1875V55.0938L462.875 54.2188ZM499.344 99.6562C494.635 99.6562 490.885 98.0938 488.094 94.9688C485.323 91.8229 483.938 87.75 483.938 82.75V81.375C483.938 76.5625 485.365 72.5625 488.219 69.375C491.094 66.1667 494.49 64.5625 498.406 64.5625C502.948 64.5625 506.385 65.9375 508.719 68.6875C511.073 71.4375 512.25 75.1042 512.25 79.6875V83.5312H490.312L490.219 83.6875C490.281 86.9375 491.104 89.6146 492.688 91.7188C494.271 93.8021 496.49 94.8438 499.344 94.8438C501.427 94.8438 503.25 94.5521 504.812 93.9688C506.396 93.3646 507.76 92.5417 508.906 91.5L511.312 95.5C510.104 96.6667 508.5 97.6562 506.5 98.4688C504.521 99.2604 502.135 99.6562 499.344 99.6562ZM498.406 69.4062C496.344 69.4062 494.583 70.2812 493.125 72.0312C491.667 73.7604 490.771 75.9375 490.438 78.5625L490.5 78.7188H506.094V77.9062C506.094 75.4896 505.448 73.4688 504.156 71.8438C502.865 70.2188 500.948 69.4062 498.406 69.4062ZM517.438 95.0625L522.531 94.1875V70.0312L517.438 69.1562V65.1875H528.031L528.469 70.2188C529.594 68.4271 531 67.0417 532.688 66.0625C534.396 65.0625 536.333 64.5625 538.5 64.5625C542.146 64.5625 544.969 65.6354 546.969 67.7812C548.969 69.9062 549.969 73.1979 549.969 77.6562V94.1875L555.062 95.0625V99H538.719V95.0625L543.812 94.1875V77.7812C543.812 74.8021 543.219 72.6875 542.031 71.4375C540.865 70.1875 539.073 69.5625 536.656 69.5625C534.885 69.5625 533.312 69.9896 531.938 70.8438C530.583 71.6979 529.5 72.8646 528.688 74.3438V94.1875L533.781 95.0625V99H517.438V95.0625Z" fill="#BD93F9"/>
<path d="M470.656 160.094V164H466.438V160.094H470.656ZM479.125 164V131.188H481.469L481.875 135.375C486.062 132.583 490.167 131.188 494.188 131.188C502.167 131.188 506.156 134.635 506.156 141.531V164H502.875V141.438C502.875 136.562 499.927 134.125 494.031 134.125C490.094 134.125 486.219 135.51 482.406 138.281V164H479.125ZM529.406 131.188C538.385 131.188 542.875 136.156 542.875 146.094C542.875 146.802 542.854 147.542 542.812 148.312H517.906C517.906 156.896 522.448 161.188 531.531 161.188C535.26 161.188 538.573 160.667 541.469 159.625V162.438C538.573 163.479 535.26 164 531.531 164C520.26 164 514.625 158.406 514.625 147.219C514.625 136.531 519.552 131.188 529.406 131.188ZM517.906 145.375H539.719C539.594 137.75 536.156 133.938 529.406 133.938C522.115 133.938 518.281 137.75 517.906 145.375ZM551.188 125.875H553.5L554.094 131.188H563.938V134H554.375V154.719C554.375 159.031 555.958 161.188 559.125 161.188H563.938V164H559.188C553.854 164 551.188 161.052 551.188 155.156V125.875Z" fill="#8BE9FD"/>
<path d="M170.013 218.258L156.688 212.193V211.156L171.384 217.801V218.68L156.688 225.342V224.305L170.013 218.258ZM197.383 222.354H184.85L182.002 230H180.965L190.545 204.406H191.705L201.286 230H200.248L197.383 222.354ZM185.202 221.404H197.032L191.125 205.549L185.202 221.404ZM215.508 224.498L216.545 228.594L222.117 210.98H223.084L228.621 228.594L229.693 224.498L233.56 210.98H234.668L229.131 230H228.181L223.488 215.709L222.592 212.299L221.625 215.709L217.002 230H216.053L210.533 210.98H211.623L215.508 224.498ZM245.461 230.352C243.926 230.352 242.514 229.941 241.225 229.121C239.948 228.289 238.946 227.152 238.219 225.711C237.493 224.27 237.129 222.67 237.129 220.912V220.121C237.129 218.363 237.481 216.752 238.184 215.287C238.887 213.822 239.854 212.68 241.085 211.859C242.315 211.039 243.657 210.629 245.11 210.629C247.231 210.629 248.965 211.385 250.313 212.896C251.661 214.408 252.335 216.395 252.335 218.855V219.857H238.079V220.895C238.079 222.441 238.401 223.877 239.045 225.201C239.702 226.514 240.598 227.545 241.735 228.295C242.883 229.045 244.126 229.42 245.461 229.42C246.739 229.42 247.823 229.209 248.713 228.787C249.616 228.354 250.413 227.691 251.104 226.801L251.772 227.275C250.354 229.326 248.251 230.352 245.461 230.352ZM245.11 211.578C243.258 211.578 241.688 212.27 240.399 213.652C239.11 215.023 238.354 216.775 238.131 218.908H251.385V218.68C251.385 217.391 251.11 216.195 250.559 215.094C250.02 213.98 249.27 213.119 248.309 212.51C247.36 211.889 246.294 211.578 245.11 211.578ZM270.581 220.666C270.581 223.631 269.943 225.986 268.665 227.732C267.388 229.479 265.648 230.352 263.445 230.352C262.015 230.352 260.738 230.059 259.613 229.473C258.488 228.875 257.603 228.049 256.958 226.994V230H256.009V203H256.958V214.443C257.626 213.189 258.505 212.24 259.595 211.596C260.697 210.951 261.968 210.629 263.409 210.629C265.636 210.629 267.388 211.484 268.665 213.195C269.943 214.895 270.581 217.285 270.581 220.367V220.666ZM269.597 220.297C269.597 217.566 269.052 215.434 267.962 213.898C266.884 212.352 265.372 211.578 263.427 211.578C261.833 211.578 260.48 211.988 259.366 212.809C258.265 213.629 257.462 214.848 256.958 216.465V225.184C257.462 226.531 258.265 227.574 259.366 228.312C260.48 229.039 261.845 229.402 263.462 229.402C265.419 229.402 266.931 228.623 267.997 227.064C269.064 225.506 269.597 223.25 269.597 220.297ZM286.771 225.342C286.771 223.033 284.803 221.463 280.865 220.631C278.498 220.127 276.852 219.482 275.926 218.697C275 217.9 274.537 216.811 274.537 215.428C274.537 214.033 275.123 212.885 276.295 211.982C277.479 211.08 279.014 210.629 280.9 210.629C282.951 210.629 284.598 211.121 285.84 212.105C287.082 213.078 287.703 214.396 287.703 216.061H286.736C286.736 214.783 286.197 213.717 285.119 212.861C284.041 212.006 282.635 211.578 280.9 211.578C279.236 211.578 277.918 211.941 276.945 212.668C275.973 213.395 275.486 214.303 275.486 215.393C275.486 216.248 275.668 216.922 276.031 217.414C276.395 217.895 276.986 218.334 277.807 218.732C278.627 219.119 279.822 219.494 281.393 219.857C282.963 220.221 284.205 220.648 285.119 221.141C286.033 221.633 286.695 222.219 287.105 222.898C287.516 223.566 287.721 224.387 287.721 225.359C287.721 226.859 287.105 228.066 285.875 228.98C284.645 229.895 283.033 230.352 281.041 230.352C278.908 230.352 277.186 229.871 275.873 228.91C274.572 227.938 273.922 226.689 273.922 225.166H274.871C274.965 226.502 275.551 227.545 276.629 228.295C277.719 229.033 279.189 229.402 281.041 229.402C282.74 229.402 284.117 229.01 285.172 228.225C286.238 227.428 286.771 226.467 286.771 225.342ZM293.434 230H292.485V210.98H293.434V230ZM291.993 205.039C291.993 204.77 292.087 204.541 292.274 204.354C292.462 204.154 292.69 204.055 292.96 204.055C293.229 204.055 293.458 204.154 293.645 204.354C293.844 204.541 293.944 204.77 293.944 205.039C293.944 205.309 293.844 205.537 293.645 205.725C293.458 205.912 293.229 206.006 292.96 206.006C292.69 206.006 292.462 205.912 292.274 205.725C292.087 205.537 291.993 205.309 291.993 205.039ZM301.081 205.848V210.98H305.406V211.947H301.081V225.447C301.081 226.795 301.298 227.791 301.732 228.436C302.177 229.08 302.915 229.402 303.947 229.402C304.462 229.402 305.089 229.35 305.828 229.244L305.986 230.141C305.599 230.281 304.937 230.352 303.999 230.352C302.617 230.352 301.626 229.971 301.029 229.209C300.431 228.436 300.126 227.223 300.115 225.57V211.947H296.599V210.98H300.115V205.848H301.081ZM316.463 230.352C314.928 230.352 313.516 229.941 312.227 229.121C310.949 228.289 309.947 227.152 309.221 225.711C308.494 224.27 308.131 222.67 308.131 220.912V220.121C308.131 218.363 308.483 216.752 309.186 215.287C309.889 213.822 310.856 212.68 312.086 211.859C313.317 211.039 314.658 210.629 316.112 210.629C318.233 210.629 319.967 211.385 321.315 212.896C322.662 214.408 323.336 216.395 323.336 218.855V219.857H309.08V220.895C309.08 222.441 309.403 223.877 310.047 225.201C310.703 226.514 311.6 227.545 312.737 228.295C313.885 229.045 315.127 229.42 316.463 229.42C317.74 229.42 318.824 229.209 319.715 228.787C320.617 228.354 321.414 227.691 322.106 226.801L322.774 227.275C321.356 229.326 319.252 230.352 316.463 230.352ZM316.112 211.578C314.26 211.578 312.69 212.27 311.401 213.652C310.112 215.023 309.356 216.775 309.133 218.908H322.387V218.68C322.387 217.391 322.112 216.195 321.561 215.094C321.022 213.98 320.272 213.119 319.311 212.51C318.362 211.889 317.295 211.578 316.112 211.578ZM336.38 230V211.947H333.076V210.98H336.38V208.203C336.392 206.445 336.832 205.08 337.699 204.107C338.578 203.123 339.797 202.631 341.355 202.631C342.222 202.631 342.972 202.73 343.605 202.93L343.464 203.844C342.855 203.668 342.158 203.58 341.373 203.58C340.119 203.58 339.129 203.99 338.402 204.811C337.687 205.619 337.33 206.773 337.33 208.273V210.98H342.357V211.947H337.33V230H336.38ZM344.133 220.121C344.133 218.305 344.479 216.676 345.17 215.234C345.873 213.781 346.858 212.65 348.123 211.842C349.401 211.033 350.842 210.629 352.448 210.629C354.041 210.629 355.471 211.021 356.737 211.807C358.002 212.592 358.987 213.705 359.69 215.146C360.405 216.588 360.768 218.211 360.78 220.016V220.859C360.78 222.688 360.434 224.322 359.742 225.764C359.051 227.205 358.067 228.33 356.789 229.139C355.524 229.947 354.088 230.352 352.483 230.352C350.877 230.352 349.436 229.953 348.159 229.156C346.893 228.359 345.909 227.246 345.205 225.816C344.502 224.375 344.145 222.758 344.133 220.965V220.121ZM345.082 220.859C345.082 222.441 345.393 223.895 346.014 225.219C346.647 226.531 347.52 227.557 348.633 228.295C349.758 229.033 351.041 229.402 352.483 229.402C354.651 229.402 356.414 228.588 357.774 226.959C359.145 225.33 359.83 223.232 359.83 220.666V220.121C359.83 218.562 359.514 217.121 358.881 215.797C358.248 214.473 357.369 213.441 356.244 212.703C355.131 211.953 353.866 211.578 352.448 211.578C350.28 211.578 348.51 212.404 347.139 214.057C345.768 215.709 345.082 217.789 345.082 220.297V220.859ZM373.067 211.666L371.837 211.561C370.22 211.561 368.866 212.088 367.776 213.143C366.687 214.186 365.972 215.65 365.632 217.537V230H364.683V210.98H365.632V214.936C366.148 213.611 366.921 212.562 367.952 211.789C368.983 211.016 370.278 210.629 371.837 210.629C372.388 210.629 372.833 210.693 373.173 210.822L373.067 211.666ZM383.036 220.297C383.036 217.262 383.674 214.895 384.952 213.195C386.229 211.484 387.981 210.629 390.208 210.629C391.637 210.629 392.897 210.951 393.987 211.596C395.088 212.24 395.979 213.201 396.659 214.479V203H397.608V230H396.659V226.959C396.014 228.037 395.129 228.875 394.004 229.473C392.879 230.059 391.602 230.352 390.172 230.352C387.969 230.352 386.229 229.479 384.952 227.732C383.674 225.986 383.036 223.59 383.036 220.543V220.297ZM384.02 220.666C384.02 223.361 384.553 225.494 385.62 227.064C386.686 228.623 388.198 229.402 390.155 229.402C391.725 229.402 393.067 229.057 394.18 228.365C395.293 227.662 396.12 226.637 396.659 225.289V216.377C395.569 213.178 393.413 211.578 390.19 211.578C388.245 211.578 386.727 212.346 385.637 213.881C384.559 215.416 384.02 217.678 384.02 220.666ZM415.204 230C414.97 229.191 414.853 228.031 414.853 226.52C414.103 227.738 413.077 228.682 411.777 229.35C410.476 230.018 409.005 230.352 407.364 230.352C405.607 230.352 404.189 229.877 403.111 228.928C402.044 227.967 401.511 226.719 401.511 225.184C401.511 223.438 402.296 222.043 403.866 221C405.448 219.945 407.546 219.406 410.159 219.383H414.853V216.605C414.853 215.012 414.349 213.775 413.341 212.896C412.345 212.018 410.915 211.578 409.052 211.578C407.318 211.578 405.87 212.023 404.71 212.914C403.55 213.805 402.97 214.906 402.97 216.219L402.021 216.184C402.021 214.637 402.7 213.324 404.06 212.246C405.419 211.168 407.083 210.629 409.052 210.629C411.103 210.629 412.732 211.145 413.939 212.176C415.146 213.195 415.767 214.637 415.802 216.5V225.588C415.802 227.674 415.966 229.092 416.294 229.842V230H415.204ZM407.364 229.42C409.146 229.42 410.675 229.021 411.952 228.225C413.241 227.428 414.208 226.309 414.853 224.867V220.35H410.458C407.739 220.35 405.659 220.889 404.218 221.967C403.046 222.846 402.46 223.941 402.46 225.254C402.46 226.414 402.923 227.398 403.849 228.207C404.775 229.016 405.947 229.42 407.364 229.42ZM426.754 228.523L426.877 228.172L433.451 210.98H434.506L425.998 233.305L425.576 234.359C424.662 236.574 423.15 237.682 421.041 237.682C420.361 237.682 419.893 237.617 419.635 237.488L419.617 236.592C419.992 236.697 420.42 236.75 420.9 236.75C421.896 236.75 422.723 236.457 423.379 235.871C424.035 235.297 424.603 234.354 425.084 233.041L426.244 229.895L418.668 210.98H419.705L426.754 228.523ZM438.585 230H437.635V203H438.585V230ZM450.943 230.352C449.408 230.352 447.995 229.941 446.706 229.121C445.429 228.289 444.427 227.152 443.701 225.711C442.974 224.27 442.611 222.67 442.611 220.912V220.121C442.611 218.363 442.962 216.752 443.665 215.287C444.369 213.822 445.335 212.68 446.566 211.859C447.796 211.039 449.138 210.629 450.591 210.629C452.712 210.629 454.447 211.385 455.794 212.896C457.142 214.408 457.816 216.395 457.816 218.855V219.857H443.56V220.895C443.56 222.441 443.882 223.877 444.527 225.201C445.183 226.514 446.079 227.545 447.216 228.295C448.365 229.045 449.607 229.42 450.943 229.42C452.22 229.42 453.304 229.209 454.195 228.787C455.097 228.354 455.894 227.691 456.585 226.801L457.253 227.275C455.835 229.326 453.732 230.352 450.943 230.352ZM450.591 211.578C448.74 211.578 447.169 212.27 445.88 213.652C444.591 215.023 443.835 216.775 443.613 218.908H456.867V218.68C456.867 217.391 456.591 216.195 456.04 215.094C455.501 213.98 454.751 213.119 453.79 212.51C452.841 211.889 451.775 211.578 450.591 211.578ZM462.475 215.41C463.096 213.934 464.01 212.768 465.217 211.912C466.424 211.057 467.76 210.629 469.225 210.629C471.264 210.629 472.775 211.209 473.76 212.369C474.756 213.518 475.26 215.258 475.272 217.59V230H474.322V217.555C474.311 215.516 473.895 214.01 473.074 213.037C472.254 212.053 470.953 211.561 469.172 211.561C467.531 211.561 466.108 212.146 464.9 213.318C463.705 214.479 462.897 215.979 462.475 217.818V230H461.525V210.98H462.475V215.41ZM478.102 209.768L477.452 209.205C478.401 207.986 478.917 206.727 478.999 205.426L479.016 203H479.966V205.057C479.919 206.92 479.298 208.49 478.102 209.768ZM493.783 225.342C493.783 223.033 491.814 221.463 487.876 220.631C485.509 220.127 483.863 219.482 482.937 218.697C482.011 217.9 481.548 216.811 481.548 215.428C481.548 214.033 482.134 212.885 483.306 211.982C484.49 211.08 486.025 210.629 487.912 210.629C489.962 210.629 491.609 211.121 492.851 212.105C494.093 213.078 494.714 214.396 494.714 216.061H493.748C493.748 214.783 493.209 213.717 492.13 212.861C491.052 212.006 489.646 211.578 487.912 211.578C486.248 211.578 484.929 211.941 483.957 212.668C482.984 213.395 482.498 214.303 482.498 215.393C482.498 216.248 482.679 216.922 483.043 217.414C483.406 217.895 483.998 218.334 484.818 218.732C485.638 219.119 486.834 219.494 488.404 219.857C489.974 220.221 491.216 220.648 492.13 221.141C493.044 221.633 493.707 222.219 494.117 222.898C494.527 223.566 494.732 224.387 494.732 225.359C494.732 226.859 494.117 228.066 492.886 228.98C491.656 229.895 490.044 230.352 488.052 230.352C485.919 230.352 484.197 229.871 482.884 228.91C481.584 227.938 480.933 226.689 480.933 225.166H481.882C481.976 226.502 482.562 227.545 483.64 228.295C484.73 229.033 486.201 229.402 488.052 229.402C489.751 229.402 491.128 229.01 492.183 228.225C493.25 227.428 493.783 226.467 493.783 225.342ZM510.571 224.498L511.608 228.594L517.181 210.98H518.147L523.685 228.594L524.757 224.498L528.624 210.98H529.731L524.194 230H523.245L518.552 215.709L517.655 212.299L516.688 215.709L512.065 230H511.116L505.597 210.98H506.686L510.571 224.498ZM540.525 230.352C538.99 230.352 537.578 229.941 536.289 229.121C535.011 228.289 534.009 227.152 533.283 225.711C532.556 224.27 532.193 222.67 532.193 220.912V220.121C532.193 218.363 532.545 216.752 533.248 215.287C533.951 213.822 534.918 212.68 536.148 211.859C537.379 211.039 538.72 210.629 540.174 210.629C542.295 210.629 544.029 211.385 545.377 212.896C546.724 214.408 547.398 216.395 547.398 218.855V219.857H533.142V220.895C533.142 222.441 533.465 223.877 534.109 225.201C534.765 226.514 535.662 227.545 536.799 228.295C537.947 229.045 539.189 229.42 540.525 229.42C541.802 229.42 542.886 229.209 543.777 228.787C544.679 228.354 545.476 227.691 546.168 226.801L546.836 227.275C545.418 229.326 543.314 230.352 540.525 230.352ZM540.174 211.578C538.322 211.578 536.752 212.27 535.463 213.652C534.174 215.023 533.418 216.775 533.195 218.908H546.449V218.68C546.449 217.391 546.174 216.195 545.623 215.094C545.084 213.98 544.334 213.119 543.373 212.51C542.424 211.889 541.357 211.578 540.174 211.578ZM565.645 220.666C565.645 223.631 565.006 225.986 563.729 227.732C562.452 229.479 560.711 230.352 558.508 230.352C557.079 230.352 555.801 230.059 554.676 229.473C553.551 228.875 552.666 228.049 552.022 226.994V230H551.073V203H552.022V214.443C552.69 213.189 553.569 212.24 554.659 211.596C555.76 210.951 557.032 210.629 558.473 210.629C560.7 210.629 562.452 211.484 563.729 213.195C565.006 214.895 565.645 217.285 565.645 220.367V220.666ZM564.661 220.297C564.661 217.566 564.116 215.434 563.026 213.898C561.948 212.352 560.436 211.578 558.491 211.578C556.897 211.578 555.543 211.988 554.43 212.809C553.329 213.629 552.526 214.848 552.022 216.465V225.184C552.526 226.531 553.329 227.574 554.43 228.312C555.543 229.039 556.909 229.402 558.526 229.402C560.483 229.402 561.995 228.623 563.061 227.064C564.127 225.506 564.661 223.25 564.661 220.297ZM576.421 218.768H568.159V217.818H576.421V218.768ZM594.615 220.666C594.615 223.631 593.976 225.986 592.699 227.732C591.422 229.479 589.682 230.352 587.478 230.352C586.037 230.352 584.754 230.059 583.629 229.473C582.504 228.887 581.625 228.078 580.992 227.047V237.312H580.043V210.98H580.992V214.373C581.648 213.166 582.533 212.24 583.646 211.596C584.76 210.951 586.025 210.629 587.443 210.629C589.67 210.629 591.422 211.484 592.699 213.195C593.976 214.895 594.615 217.285 594.615 220.367V220.666ZM593.648 220.297C593.648 217.566 593.103 215.434 592.014 213.898C590.935 212.352 589.418 211.578 587.461 211.578C585.867 211.578 584.514 211.994 583.4 212.826C582.287 213.646 581.484 214.83 580.992 216.377V225.271C581.484 226.584 582.287 227.604 583.4 228.33C584.525 229.045 585.891 229.402 587.496 229.402C589.441 229.402 590.953 228.629 592.031 227.082C593.109 225.535 593.648 223.273 593.648 220.297ZM597.639 220.121C597.639 218.305 597.985 216.676 598.676 215.234C599.38 213.781 600.364 212.65 601.63 211.842C602.907 211.033 604.348 210.629 605.954 210.629C607.547 210.629 608.977 211.021 610.243 211.807C611.508 212.592 612.493 213.705 613.196 215.146C613.911 216.588 614.274 218.211 614.286 220.016V220.859C614.286 222.688 613.94 224.322 613.249 225.764C612.557 227.205 611.573 228.33 610.296 229.139C609.03 229.947 607.594 230.352 605.989 230.352C604.383 230.352 602.942 229.953 601.665 229.156C600.399 228.359 599.415 227.246 598.712 225.816C598.008 224.375 597.651 222.758 597.639 220.965V220.121ZM598.589 220.859C598.589 222.441 598.899 223.895 599.52 225.219C600.153 226.531 601.026 227.557 602.139 228.295C603.264 229.033 604.547 229.402 605.989 229.402C608.157 229.402 609.921 228.588 611.28 226.959C612.651 225.33 613.337 223.232 613.337 220.666V220.121C613.337 218.562 613.02 217.121 612.387 215.797C611.755 214.473 610.876 213.441 609.751 212.703C608.637 211.953 607.372 211.578 605.954 211.578C603.786 211.578 602.016 212.404 600.645 214.057C599.274 215.709 598.589 217.789 598.589 220.297V220.859ZM626.574 211.666L625.343 211.561C623.726 211.561 622.372 212.088 621.283 213.143C620.193 214.186 619.478 215.65 619.138 217.537V230H618.189V210.98H619.138V214.936C619.654 213.611 620.427 212.562 621.458 211.789C622.49 211.016 623.784 210.629 625.343 210.629C625.894 210.629 626.339 210.693 626.679 210.822L626.574 211.666ZM632.533 205.848V210.98H636.857V211.947H632.533V225.447C632.533 226.795 632.75 227.791 633.184 228.436C633.629 229.08 634.367 229.402 635.398 229.402C635.914 229.402 636.541 229.35 637.279 229.244L637.438 230.141C637.051 230.281 636.389 230.352 635.451 230.352C634.068 230.352 633.078 229.971 632.48 229.209C631.883 228.436 631.578 227.223 631.566 225.57V211.947H628.051V210.98H631.566V205.848H632.533ZM642.518 230V211.947H639.214V210.98H642.518V208.203C642.53 206.445 642.969 205.08 643.837 204.107C644.716 203.123 645.934 202.631 647.493 202.631C648.36 202.631 649.11 202.73 649.743 202.93L649.602 203.844C648.993 203.668 648.296 203.58 647.51 203.58C646.257 203.58 645.266 203.99 644.54 204.811C643.825 205.619 643.468 206.773 643.468 208.273V210.98H648.495V211.947H643.468V230H642.518ZM650.271 220.121C650.271 218.305 650.617 216.676 651.308 215.234C652.011 213.781 652.996 212.65 654.261 211.842C655.539 211.033 656.98 210.629 658.585 210.629C660.179 210.629 661.609 211.021 662.875 211.807C664.14 212.592 665.125 213.705 665.828 215.146C666.542 216.588 666.906 218.211 666.917 220.016V220.859C666.917 222.688 666.572 224.322 665.88 225.764C665.189 227.205 664.205 228.33 662.927 229.139C661.662 229.947 660.226 230.352 658.621 230.352C657.015 230.352 655.574 229.953 654.296 229.156C653.031 228.359 652.046 227.246 651.343 225.816C650.64 224.375 650.283 222.758 650.271 220.965V220.121ZM651.22 220.859C651.22 222.441 651.531 223.895 652.152 225.219C652.785 226.531 653.658 227.557 654.771 228.295C655.896 229.033 657.179 229.402 658.621 229.402C660.789 229.402 662.552 228.588 663.912 226.959C665.283 225.33 665.968 223.232 665.968 220.666V220.121C665.968 218.562 665.652 217.121 665.019 215.797C664.386 214.473 663.507 213.441 662.382 212.703C661.269 211.953 660.003 211.578 658.585 211.578C656.417 211.578 654.648 212.404 653.277 214.057C651.906 215.709 651.22 217.789 651.22 220.297V220.859ZM671.998 230H671.049V203H671.998V230ZM678.696 230H677.747V210.98H678.696V230ZM677.255 205.039C677.255 204.77 677.349 204.541 677.536 204.354C677.724 204.154 677.952 204.055 678.222 204.055C678.491 204.055 678.72 204.154 678.907 204.354C679.106 204.541 679.206 204.77 679.206 205.039C679.206 205.309 679.106 205.537 678.907 205.725C678.72 205.912 678.491 206.006 678.222 206.006C677.952 206.006 677.724 205.912 677.536 205.725C677.349 205.537 677.255 205.309 677.255 205.039ZM682.775 220.121C682.775 218.305 683.121 216.676 683.812 215.234C684.515 213.781 685.5 212.65 686.765 211.842C688.043 211.033 689.484 210.629 691.089 210.629C692.683 210.629 694.113 211.021 695.379 211.807C696.644 212.592 697.629 213.705 698.332 215.146C699.047 216.588 699.41 218.211 699.422 220.016V220.859C699.422 222.688 699.076 224.322 698.384 225.764C697.693 227.205 696.709 228.33 695.431 229.139C694.166 229.947 692.73 230.352 691.125 230.352C689.519 230.352 688.078 229.953 686.8 229.156C685.535 228.359 684.55 227.246 683.847 225.816C683.144 224.375 682.787 222.758 682.775 220.965V220.121ZM683.724 220.859C683.724 222.441 684.035 223.895 684.656 225.219C685.289 226.531 686.162 227.557 687.275 228.295C688.4 229.033 689.683 229.402 691.125 229.402C693.293 229.402 695.056 228.588 696.416 226.959C697.787 225.33 698.472 223.232 698.472 220.666V220.121C698.472 218.562 698.156 217.121 697.523 215.797C696.89 214.473 696.011 213.441 694.886 212.703C693.773 211.953 692.507 211.578 691.089 211.578C688.922 211.578 687.152 212.404 685.781 214.057C684.41 215.709 683.724 217.789 683.724 220.297V220.859ZM702.885 229.139C702.885 228.869 702.979 228.641 703.166 228.453C703.354 228.254 703.582 228.154 703.852 228.154C704.121 228.154 704.35 228.254 704.537 228.453C704.737 228.641 704.836 228.869 704.836 229.139C704.836 229.408 704.737 229.637 704.537 229.824C704.35 230.012 704.121 230.105 703.852 230.105C703.582 230.105 703.354 230.012 703.166 229.824C702.979 229.637 702.885 229.408 702.885 229.139Z" fill="white"/>
</svg>
