<svg width="886" height="269" viewBox="0 0 886 269" fill="none" xmlns="http://www.w3.org/2000/svg">
<rect width="886" height="269" fill="white"/>
<g filter="url(#filter0_d)">
<rect x="9" y="7" width="862" height="245" fill="#282A36"/>
<path d="M305.219 95.9062H300L319 46.5H324.188L305.219 95.9062ZM323.969 95.9062H318.75L337.75 46.5H342.938L323.969 95.9062ZM305.219 160.906H300L319 111.5H324.188L305.219 160.906ZM323.969 160.906H318.75L337.75 111.5H342.938L323.969 160.906Z" fill="#6272A4"/>
<path d="M386 87.9688C384.896 89.5104 383.542 90.6771 381.938 91.4688C380.354 92.2604 378.51 92.6562 376.406 92.6562C372.281 92.6562 369.052 91.1667 366.719 88.1875C364.406 85.1875 363.25 81.25 363.25 76.375V75.7188C363.25 70.2812 364.406 65.8958 366.719 62.5625C369.052 59.2292 372.302 57.5625 376.469 57.5625C378.469 57.5625 380.229 57.9375 381.75 58.6875C383.292 59.4167 384.604 60.4792 385.688 61.875V48.0938L380.594 47.2188V43.25H385.688H391.844V87.1875L396.938 88.0625V92H386.5L386 87.9688ZM369.406 76.375C369.406 79.7708 370.104 82.5 371.5 84.5625C372.896 86.625 375.052 87.6562 377.969 87.6562C379.802 87.6562 381.344 87.2396 382.594 86.4062C383.844 85.5729 384.875 84.3958 385.688 82.875V67.1875C384.896 65.7708 383.865 64.6458 382.594 63.8125C381.323 62.9792 379.802 62.5625 378.031 62.5625C375.094 62.5625 372.917 63.7812 371.5 66.2188C370.104 68.6562 369.406 71.8229 369.406 75.7188V76.375ZM423.719 92C423.531 91.0833 423.385 90.2604 423.281 89.5312C423.177 88.8021 423.104 88.0729 423.062 87.3438C421.875 88.8646 420.385 90.1354 418.594 91.1562C416.823 92.1562 414.927 92.6562 412.906 92.6562C409.385 92.6562 406.708 91.8021 404.875 90.0938C403.042 88.3646 402.125 85.9375 402.125 82.8125C402.125 79.6042 403.417 77.1354 406 75.4062C408.604 73.6562 412.167 72.7812 416.688 72.7812H423.031V68.8438C423.031 66.8646 422.406 65.3021 421.156 64.1562C419.906 62.9896 418.167 62.4062 415.938 62.4062C414.396 62.4062 413.031 62.6042 411.844 63C410.677 63.3958 409.729 63.9375 409 64.625L408.344 68.1875H403.594V61.625C405.135 60.3958 407 59.4167 409.188 58.6875C411.375 57.9375 413.75 57.5625 416.312 57.5625C420.146 57.5625 423.25 58.5417 425.625 60.5C428 62.4583 429.188 65.2604 429.188 68.9062V85.1875C429.188 85.625 429.188 86.0521 429.188 86.4688C429.208 86.8854 429.24 87.3021 429.281 87.7188L431.781 88.0625V92H423.719ZM413.812 87.5C415.854 87.5 417.719 87.0104 419.406 86.0312C421.094 85.0521 422.302 83.875 423.031 82.5V76.9375H416.469C413.948 76.9375 411.948 77.5208 410.469 78.6875C409.01 79.8542 408.281 81.2708 408.281 82.9375C408.281 84.4167 408.74 85.5521 409.656 86.3438C410.573 87.1146 411.958 87.5 413.812 87.5ZM468.531 62.1562L465.5 62.625L452.625 97.1875C451.771 99.4583 450.542 101.438 448.938 103.125C447.333 104.812 445.177 105.656 442.469 105.656C441.99 105.656 441.365 105.594 440.594 105.469C439.823 105.365 439.229 105.26 438.812 105.156L439.438 100.312C439.312 100.292 439.677 100.312 440.531 100.375C441.406 100.438 441.958 100.469 442.188 100.469C443.5 100.469 444.562 99.8958 445.375 98.75C446.188 97.625 446.896 96.3229 447.5 94.8438L448.969 91.3438L437.812 62.6562L434.719 62.1562V58.1875H448.375V62.1562L444.562 62.7812L450.406 79.4688L451.531 83.7812H451.719L458.75 62.7812L454.906 62.1562V58.1875H468.531V62.1562ZM471.875 47.2188V43.25H483.125V87.1875L488.219 88.0625V92H471.875V88.0625L476.969 87.1875V48.0938L471.875 47.2188ZM508.344 92.6562C503.635 92.6562 499.885 91.0938 497.094 87.9688C494.323 84.8229 492.938 80.75 492.938 75.75V74.375C492.938 69.5625 494.365 65.5625 497.219 62.375C500.094 59.1667 503.49 57.5625 507.406 57.5625C511.948 57.5625 515.385 58.9375 517.719 61.6875C520.073 64.4375 521.25 68.1042 521.25 72.6875V76.5312H499.312L499.219 76.6875C499.281 79.9375 500.104 82.6146 501.688 84.7188C503.271 86.8021 505.49 87.8438 508.344 87.8438C510.427 87.8438 512.25 87.5521 513.812 86.9688C515.396 86.3646 516.76 85.5417 517.906 84.5L520.312 88.5C519.104 89.6667 517.5 90.6562 515.5 91.4688C513.521 92.2604 511.135 92.6562 508.344 92.6562ZM507.406 62.4062C505.344 62.4062 503.583 63.2812 502.125 65.0312C500.667 66.7604 499.771 68.9375 499.438 71.5625L499.5 71.7188H515.094V70.9062C515.094 68.4896 514.448 66.4688 513.156 64.8438C511.865 63.2188 509.948 62.4062 507.406 62.4062ZM526.438 88.0625L531.531 87.1875V63.0312L526.438 62.1562V58.1875H537.031L537.469 63.2188C538.594 61.4271 540 60.0417 541.688 59.0625C543.396 58.0625 545.333 57.5625 547.5 57.5625C551.146 57.5625 553.969 58.6354 555.969 60.7812C557.969 62.9062 558.969 66.1979 558.969 70.6562V87.1875L564.062 88.0625V92H547.719V88.0625L552.812 87.1875V70.7812C552.812 67.8021 552.219 65.6875 551.031 64.4375C549.865 63.1875 548.073 62.5625 545.656 62.5625C543.885 62.5625 542.312 62.9896 540.938 63.8438C539.583 64.6979 538.5 65.8646 537.688 67.3438V87.1875L542.781 88.0625V92H526.438V88.0625Z" fill="#BD93F9"/>
<path d="M479.656 153.094V157H475.438V153.094H479.656ZM488.125 157V124.188H490.469L490.875 128.375C495.062 125.583 499.167 124.188 503.188 124.188C511.167 124.188 515.156 127.635 515.156 134.531V157H511.875V134.438C511.875 129.562 508.927 127.125 503.031 127.125C499.094 127.125 495.219 128.51 491.406 131.281V157H488.125ZM538.406 124.188C547.385 124.188 551.875 129.156 551.875 139.094C551.875 139.802 551.854 140.542 551.812 141.312H526.906C526.906 149.896 531.448 154.188 540.531 154.188C544.26 154.188 547.573 153.667 550.469 152.625V155.438C547.573 156.479 544.26 157 540.531 157C529.26 157 523.625 151.406 523.625 140.219C523.625 129.531 528.552 124.188 538.406 124.188ZM526.906 138.375H548.719C548.594 130.75 545.156 126.938 538.406 126.938C531.115 126.938 527.281 130.75 526.906 138.375ZM560.188 118.875H562.5L563.094 124.188H572.938V127H563.375V147.719C563.375 152.031 564.958 154.188 568.125 154.188H572.938V157H568.188C562.854 157 560.188 154.052 560.188 148.156V118.875Z" fill="#8BE9FD"/>
<path d="M137.092 205.416L124.594 200.09V197.928L139.448 204.572V206.277L124.594 212.939V210.76L137.092 205.416ZM169.047 209.828H157.428L154.791 217H152.524L162.209 191.406H164.266L173.952 217H171.702L169.047 209.828ZM158.096 207.982H168.362L163.229 194.043L158.096 207.982ZM192.705 212.623L193.022 214.258L193.444 212.535L198.014 197.98H199.807L204.324 212.412L204.817 214.416L205.221 212.57L209.123 197.98H211.303L205.766 217H203.973L199.086 201.918L198.858 200.881L198.629 201.936L193.83 217H192.037L186.518 197.98H188.68L192.705 212.623ZM223.738 217.352C222.121 217.352 220.656 216.953 219.344 216.156C218.043 215.359 217.029 214.252 216.303 212.834C215.576 211.404 215.213 209.805 215.213 208.035V207.279C215.213 205.451 215.565 203.805 216.268 202.34C216.983 200.875 217.973 199.727 219.238 198.895C220.504 198.051 221.875 197.629 223.352 197.629C225.66 197.629 227.488 198.42 228.836 200.002C230.195 201.572 230.875 203.723 230.875 206.453V207.631H217.305V208.035C217.305 210.191 217.92 211.99 219.151 213.432C220.393 214.861 221.951 215.576 223.826 215.576C224.951 215.576 225.942 215.371 226.797 214.961C227.664 214.551 228.449 213.895 229.152 212.992L230.471 213.994C228.924 216.232 226.68 217.352 223.738 217.352ZM223.352 199.422C221.77 199.422 220.434 200.002 219.344 201.162C218.266 202.322 217.61 203.881 217.375 205.838H228.783V205.609C228.725 203.781 228.203 202.293 227.219 201.145C226.235 199.996 224.945 199.422 223.352 199.422ZM251.361 207.684C251.361 210.648 250.705 213.004 249.393 214.75C248.08 216.484 246.316 217.352 244.102 217.352C241.453 217.352 239.449 216.367 238.09 214.398L238.002 217H236.033V190H238.125V200.74C239.461 198.666 241.441 197.629 244.066 197.629C246.316 197.629 248.092 198.49 249.393 200.213C250.705 201.924 251.361 204.309 251.361 207.367V207.684ZM249.252 207.314C249.252 204.807 248.766 202.873 247.793 201.514C246.82 200.143 245.449 199.457 243.68 199.457C242.332 199.457 241.19 199.791 240.252 200.459C239.315 201.115 238.606 202.082 238.125 203.359V211.938C239.18 214.328 241.043 215.523 243.715 215.523C245.449 215.523 246.803 214.838 247.775 213.467C248.76 212.096 249.252 210.045 249.252 207.314ZM268.49 212.166C268.49 211.123 268.068 210.285 267.225 209.652C266.393 209.02 265.133 208.527 263.445 208.176C261.758 207.812 260.445 207.402 259.508 206.945C258.582 206.477 257.891 205.908 257.434 205.24C256.988 204.572 256.766 203.764 256.766 202.814C256.766 201.314 257.393 200.078 258.646 199.105C259.9 198.121 261.506 197.629 263.463 197.629C265.584 197.629 267.283 198.156 268.561 199.211C269.85 200.254 270.494 201.619 270.494 203.307H268.385C268.385 202.193 267.916 201.268 266.979 200.529C266.053 199.791 264.881 199.422 263.463 199.422C262.08 199.422 260.967 199.732 260.123 200.354C259.291 200.963 258.875 201.76 258.875 202.744C258.875 203.693 259.221 204.432 259.912 204.959C260.615 205.475 261.887 205.949 263.727 206.383C265.578 206.816 266.961 207.279 267.875 207.771C268.801 208.264 269.486 208.855 269.932 209.547C270.377 210.238 270.6 211.076 270.6 212.061C270.6 213.666 269.949 214.949 268.648 215.91C267.359 216.871 265.672 217.352 263.586 217.352C261.371 217.352 259.572 216.818 258.189 215.752C256.818 214.674 256.133 213.314 256.133 211.674H258.242C258.324 212.904 258.84 213.865 259.789 214.557C260.75 215.236 262.016 215.576 263.586 215.576C265.051 215.576 266.234 215.254 267.137 214.609C268.039 213.965 268.49 213.15 268.49 212.166ZM278.781 217H276.672V197.98H278.781V217ZM276.303 192.479C276.303 192.08 276.432 191.746 276.689 191.477C276.947 191.195 277.299 191.055 277.744 191.055C278.189 191.055 278.541 191.195 278.799 191.477C279.068 191.746 279.203 192.08 279.203 192.479C279.203 192.877 279.068 193.211 278.799 193.48C278.541 193.75 278.189 193.885 277.744 193.885C277.299 193.885 276.947 193.75 276.689 193.48C276.432 193.211 276.303 192.877 276.303 192.479ZM288.861 193.111V197.98H292.799V199.703H288.861V212.377C288.861 213.432 289.049 214.217 289.424 214.732C289.81 215.248 290.449 215.506 291.34 215.506C291.691 215.506 292.26 215.447 293.045 215.33L293.133 217.053C292.582 217.252 291.832 217.352 290.883 217.352C289.441 217.352 288.392 216.936 287.736 216.104C287.08 215.26 286.752 214.023 286.752 212.395V199.703H283.254V197.98H286.752V193.111H288.861ZM305.603 217.352C303.986 217.352 302.521 216.953 301.209 216.156C299.908 215.359 298.894 214.252 298.168 212.834C297.441 211.404 297.078 209.805 297.078 208.035V207.279C297.078 205.451 297.429 203.805 298.133 202.34C298.847 200.875 299.838 199.727 301.103 198.895C302.369 198.051 303.74 197.629 305.217 197.629C307.525 197.629 309.353 198.42 310.701 200.002C312.06 201.572 312.74 203.723 312.74 206.453V207.631H299.17V208.035C299.17 210.191 299.785 211.99 301.015 213.432C302.258 214.861 303.816 215.576 305.691 215.576C306.816 215.576 307.806 215.371 308.662 214.961C309.529 214.551 310.314 213.895 311.017 212.992L312.336 213.994C310.789 216.232 308.545 217.352 305.603 217.352ZM305.217 199.422C303.635 199.422 302.299 200.002 301.209 201.162C300.131 202.322 299.474 203.881 299.24 205.838H310.648V205.609C310.59 203.781 310.068 202.293 309.084 201.145C308.099 199.996 306.81 199.422 305.217 199.422ZM329.261 217V199.703H326.115V197.98H329.261V195.678C329.261 193.732 329.754 192.238 330.738 191.195C331.734 190.152 333.117 189.631 334.886 189.631C335.683 189.631 336.427 189.73 337.119 189.93L336.961 191.688C336.375 191.547 335.736 191.477 335.045 191.477C333.884 191.477 332.982 191.84 332.337 192.566C331.693 193.281 331.371 194.301 331.371 195.625V197.98H335.906V199.703H331.371V217H329.261ZM339.587 207.209C339.587 205.381 339.939 203.734 340.642 202.27C341.357 200.805 342.359 199.668 343.648 198.859C344.949 198.039 346.419 197.629 348.06 197.629C350.591 197.629 352.642 198.52 354.212 200.301C355.783 202.07 356.568 204.42 356.568 207.35V207.789C356.568 209.629 356.21 211.287 355.496 212.764C354.792 214.229 353.796 215.359 352.507 216.156C351.218 216.953 349.748 217.352 348.095 217.352C345.576 217.352 343.525 216.467 341.943 214.697C340.373 212.916 339.587 210.561 339.587 207.631V207.209ZM341.697 207.789C341.697 210.062 342.283 211.932 343.455 213.396C344.638 214.85 346.185 215.576 348.095 215.576C349.994 215.576 351.529 214.85 352.701 213.396C353.884 211.932 354.476 210.004 354.476 207.613V207.209C354.476 205.756 354.207 204.426 353.667 203.219C353.128 202.012 352.373 201.08 351.4 200.424C350.427 199.756 349.314 199.422 348.06 199.422C346.185 199.422 344.656 200.16 343.472 201.637C342.289 203.102 341.697 205.023 341.697 207.402V207.789ZM370.796 199.773C370.351 199.691 369.876 199.65 369.372 199.65C368.06 199.65 366.947 200.02 366.033 200.758C365.13 201.484 364.486 202.545 364.099 203.939V217H362.007V197.98H364.064L364.099 201.004C365.212 198.754 366.999 197.629 369.46 197.629C370.046 197.629 370.509 197.705 370.849 197.857L370.796 199.773ZM384.206 207.314C384.206 204.361 384.863 202.012 386.175 200.266C387.499 198.508 389.292 197.629 391.554 197.629C394.12 197.629 396.077 198.643 397.425 200.67V190H399.517V217H397.548L397.46 214.469C396.113 216.391 394.132 217.352 391.519 217.352C389.327 217.352 387.558 216.473 386.21 214.715C384.874 212.945 384.206 210.561 384.206 207.561V207.314ZM386.333 207.684C386.333 210.109 386.82 212.025 387.792 213.432C388.765 214.826 390.136 215.523 391.906 215.523C394.495 215.523 396.335 214.381 397.425 212.096V203.166C396.335 200.693 394.507 199.457 391.941 199.457C390.171 199.457 388.794 200.154 387.81 201.549C386.825 202.932 386.333 204.977 386.333 207.684ZM418.14 217C417.929 216.402 417.794 215.518 417.736 214.346C416.997 215.307 416.054 216.051 414.905 216.578C413.769 217.094 412.562 217.352 411.284 217.352C409.456 217.352 407.974 216.842 406.837 215.822C405.712 214.803 405.15 213.514 405.15 211.955C405.15 210.104 405.917 208.639 407.452 207.561C408.999 206.482 411.15 205.943 413.904 205.943H417.718V203.781C417.718 202.422 417.296 201.355 416.452 200.582C415.62 199.797 414.402 199.404 412.796 199.404C411.331 199.404 410.118 199.779 409.157 200.529C408.196 201.279 407.716 202.182 407.716 203.236L405.607 203.219C405.607 201.707 406.31 200.4 407.716 199.299C409.122 198.186 410.851 197.629 412.902 197.629C415.023 197.629 416.693 198.162 417.911 199.229C419.142 200.283 419.775 201.76 419.81 203.658V212.658C419.81 214.498 420.003 215.875 420.39 216.789V217H418.14ZM411.53 215.488C412.937 215.488 414.191 215.148 415.292 214.469C416.405 213.789 417.214 212.881 417.718 211.744V207.561H413.956C411.859 207.584 410.218 207.971 409.034 208.721C407.851 209.459 407.259 210.479 407.259 211.779C407.259 212.846 407.652 213.73 408.437 214.434C409.234 215.137 410.265 215.488 411.53 215.488ZM432.263 213.977L437.818 197.98H440.085L431.964 220.234L431.542 221.219C430.499 223.527 428.888 224.682 426.708 224.682C426.204 224.682 425.665 224.6 425.091 224.436L425.073 222.695L426.163 222.801C427.194 222.801 428.026 222.543 428.659 222.027C429.304 221.523 429.849 220.65 430.294 219.408L431.226 216.842L424.054 197.98H426.357L432.263 213.977ZM446.79 217H444.681V190H446.79V217ZM460.966 217.352C459.349 217.352 457.884 216.953 456.571 216.156C455.27 215.359 454.257 214.252 453.53 212.834C452.804 211.404 452.44 209.805 452.44 208.035V207.279C452.44 205.451 452.792 203.805 453.495 202.34C454.21 200.875 455.2 199.727 456.466 198.895C457.731 198.051 459.103 197.629 460.579 197.629C462.888 197.629 464.716 198.42 466.063 200.002C467.423 201.572 468.103 203.723 468.103 206.453V207.631H454.532V208.035C454.532 210.191 455.147 211.99 456.378 213.432C457.62 214.861 459.179 215.576 461.054 215.576C462.179 215.576 463.169 215.371 464.024 214.961C464.892 214.551 465.677 213.895 466.38 212.992L467.698 213.994C466.151 216.232 463.907 217.352 460.966 217.352ZM460.579 199.422C458.997 199.422 457.661 200.002 456.571 201.162C455.493 202.322 454.837 203.881 454.603 205.838H466.011V205.609C465.952 203.781 465.431 202.293 464.446 201.145C463.462 199.996 462.173 199.422 460.579 199.422ZM475.282 197.98L475.352 201.232C476.067 200.061 476.958 199.17 478.024 198.561C479.091 197.939 480.268 197.629 481.557 197.629C483.597 197.629 485.114 198.203 486.11 199.352C487.106 200.5 487.61 202.223 487.622 204.52V217H485.53V204.502C485.518 202.803 485.155 201.537 484.44 200.705C483.737 199.873 482.606 199.457 481.048 199.457C479.747 199.457 478.593 199.867 477.585 200.688C476.589 201.496 475.85 202.592 475.37 203.975V217H473.278V197.98H475.282ZM492.341 197.682L491.093 196.768C492.147 195.35 492.692 193.861 492.727 192.303V190H494.802V191.775C494.802 194.225 493.981 196.193 492.341 197.682ZM509.645 212.166C509.645 211.123 509.223 210.285 508.38 209.652C507.548 209.02 506.288 208.527 504.6 208.176C502.913 207.812 501.6 207.402 500.663 206.945C499.737 206.477 499.046 205.908 498.589 205.24C498.143 204.572 497.921 203.764 497.921 202.814C497.921 201.314 498.548 200.078 499.801 199.105C501.055 198.121 502.661 197.629 504.618 197.629C506.739 197.629 508.438 198.156 509.716 199.211C511.005 200.254 511.649 201.619 511.649 203.307H509.54C509.54 202.193 509.071 201.268 508.134 200.529C507.208 199.791 506.036 199.422 504.618 199.422C503.235 199.422 502.122 199.732 501.278 200.354C500.446 200.963 500.03 201.76 500.03 202.744C500.03 203.693 500.376 204.432 501.067 204.959C501.77 205.475 503.042 205.949 504.882 206.383C506.733 206.816 508.116 207.279 509.03 207.771C509.956 208.264 510.641 208.855 511.087 209.547C511.532 210.238 511.755 211.076 511.755 212.061C511.755 213.666 511.104 214.949 509.803 215.91C508.514 216.871 506.827 217.352 504.741 217.352C502.526 217.352 500.727 216.818 499.344 215.752C497.973 214.674 497.288 213.314 497.288 211.674H499.397C499.479 212.904 499.995 213.865 500.944 214.557C501.905 215.236 503.171 215.576 504.741 215.576C506.206 215.576 507.389 215.254 508.292 214.609C509.194 213.965 509.645 213.15 509.645 212.166ZM531.967 212.623L532.284 214.258L532.706 212.535L537.276 197.98H539.069L543.586 212.412L544.079 214.416L544.483 212.57L548.385 197.98H550.565L545.028 217H543.235L538.348 201.918L538.12 200.881L537.891 201.936L533.092 217H531.299L525.78 197.98H527.942L531.967 212.623ZM563 217.352C561.383 217.352 559.918 216.953 558.606 216.156C557.305 215.359 556.291 214.252 555.565 212.834C554.838 211.404 554.475 209.805 554.475 208.035V207.279C554.475 205.451 554.827 203.805 555.53 202.34C556.245 200.875 557.235 199.727 558.5 198.895C559.766 198.051 561.137 197.629 562.614 197.629C564.922 197.629 566.75 198.42 568.098 200.002C569.457 201.572 570.137 203.723 570.137 206.453V207.631H556.567V208.035C556.567 210.191 557.182 211.99 558.413 213.432C559.655 214.861 561.213 215.576 563.088 215.576C564.213 215.576 565.204 215.371 566.059 214.961C566.926 214.551 567.711 213.895 568.415 212.992L569.733 213.994C568.186 216.232 565.942 217.352 563 217.352ZM562.614 199.422C561.032 199.422 559.696 200.002 558.606 201.162C557.528 202.322 556.872 203.881 556.637 205.838H568.045V205.609C567.987 203.781 567.465 202.293 566.481 201.145C565.497 199.996 564.207 199.422 562.614 199.422ZM590.623 207.684C590.623 210.648 589.967 213.004 588.655 214.75C587.342 216.484 585.578 217.352 583.364 217.352C580.715 217.352 578.711 216.367 577.352 214.398L577.264 217H575.295V190H577.387V200.74C578.723 198.666 580.703 197.629 583.328 197.629C585.578 197.629 587.354 198.49 588.655 200.213C589.967 201.924 590.623 204.309 590.623 207.367V207.684ZM588.514 207.314C588.514 204.807 588.028 202.873 587.055 201.514C586.082 200.143 584.711 199.457 582.942 199.457C581.594 199.457 580.452 199.791 579.514 200.459C578.577 201.115 577.868 202.082 577.387 203.359V211.938C578.442 214.328 580.305 215.523 582.977 215.523C584.711 215.523 586.065 214.838 587.037 213.467C588.022 212.096 588.514 210.045 588.514 207.314ZM602.901 206.594H594.481V204.818H602.901V206.594ZM623.035 207.684C623.035 210.648 622.379 213.004 621.067 214.75C619.754 216.484 617.996 217.352 615.793 217.352C613.192 217.352 611.199 216.438 609.817 214.609V224.312H607.725V197.98H609.676L609.781 200.67C611.153 198.643 613.139 197.629 615.74 197.629C618.014 197.629 619.795 198.49 621.084 200.213C622.385 201.936 623.035 204.326 623.035 207.385V207.684ZM620.926 207.314C620.926 204.889 620.428 202.973 619.432 201.566C618.436 200.16 617.047 199.457 615.266 199.457C613.977 199.457 612.869 199.768 611.944 200.389C611.018 201.01 610.309 201.912 609.817 203.096V212.219C610.321 213.309 611.041 214.141 611.979 214.715C612.916 215.289 614.024 215.576 615.301 215.576C617.071 215.576 618.448 214.873 619.432 213.467C620.428 212.049 620.926 209.998 620.926 207.314ZM627.631 207.209C627.631 205.381 627.983 203.734 628.686 202.27C629.401 200.805 630.402 199.668 631.692 198.859C632.992 198.039 634.463 197.629 636.104 197.629C638.635 197.629 640.686 198.52 642.256 200.301C643.826 202.07 644.611 204.42 644.611 207.35V207.789C644.611 209.629 644.254 211.287 643.539 212.764C642.836 214.229 641.84 215.359 640.551 216.156C639.262 216.953 637.791 217.352 636.139 217.352C633.619 217.352 631.568 216.467 629.986 214.697C628.416 212.916 627.631 210.561 627.631 207.631V207.209ZM629.74 207.789C629.74 210.062 630.326 211.932 631.498 213.396C632.682 214.85 634.229 215.576 636.139 215.576C638.037 215.576 639.572 214.85 640.744 213.396C641.928 211.932 642.52 210.004 642.52 207.613V207.209C642.52 205.756 642.25 204.426 641.711 203.219C641.172 202.012 640.416 201.08 639.443 200.424C638.471 199.756 637.358 199.422 636.104 199.422C634.229 199.422 632.699 200.16 631.516 201.637C630.332 203.102 629.74 205.023 629.74 207.402V207.789ZM658.84 199.773C658.395 199.691 657.92 199.65 657.416 199.65C656.104 199.65 654.99 200.02 654.076 200.758C653.174 201.484 652.529 202.545 652.143 203.939V217H650.051V197.98H652.107L652.143 201.004C653.256 198.754 655.043 197.629 657.504 197.629C658.09 197.629 658.553 197.705 658.893 197.857L658.84 199.773ZM667.408 193.111V197.98H671.346V199.703H667.408V212.377C667.408 213.432 667.596 214.217 667.971 214.732C668.357 215.248 668.996 215.506 669.887 215.506C670.238 215.506 670.807 215.447 671.592 215.33L671.68 217.053C671.129 217.252 670.379 217.352 669.43 217.352C667.988 217.352 666.939 216.936 666.283 216.104C665.627 215.26 665.299 214.023 665.299 212.395V199.703H661.801V197.98H665.299V193.111H667.408ZM678.297 217V199.703H675.15V197.98H678.297V195.678C678.297 193.732 678.789 192.238 679.773 191.195C680.769 190.152 682.152 189.631 683.922 189.631C684.719 189.631 685.463 189.73 686.154 189.93L685.996 191.688C685.41 191.547 684.771 191.477 684.08 191.477C682.92 191.477 682.018 191.84 681.373 192.566C680.728 193.281 680.406 194.301 680.406 195.625V197.98H684.941V199.703H680.406V217H678.297ZM688.623 207.209C688.623 205.381 688.974 203.734 689.678 202.27C690.392 200.805 691.394 199.668 692.683 198.859C693.984 198.039 695.455 197.629 697.096 197.629C699.627 197.629 701.678 198.52 703.248 200.301C704.818 202.07 705.603 204.42 705.603 207.35V207.789C705.603 209.629 705.246 211.287 704.531 212.764C703.828 214.229 702.832 215.359 701.543 216.156C700.254 216.953 698.783 217.352 697.131 217.352C694.611 217.352 692.56 216.467 690.978 214.697C689.408 212.916 688.623 210.561 688.623 207.631V207.209ZM690.732 207.789C690.732 210.062 691.318 211.932 692.49 213.396C693.674 214.85 695.221 215.576 697.131 215.576C699.029 215.576 700.564 214.85 701.736 213.396C702.92 211.932 703.512 210.004 703.512 207.613V207.209C703.512 205.756 703.242 204.426 702.703 203.219C702.164 202.012 701.408 201.08 700.435 200.424C699.463 199.756 698.349 199.422 697.096 199.422C695.221 199.422 693.691 200.16 692.508 201.637C691.324 203.102 690.732 205.023 690.732 207.402V207.789ZM713.398 217H711.289V190H713.398V217ZM722.564 217H720.455V197.98H722.564V217ZM720.086 192.479C720.086 192.08 720.215 191.746 720.472 191.477C720.73 191.195 721.082 191.055 721.527 191.055C721.972 191.055 722.324 191.195 722.582 191.477C722.851 191.746 722.986 192.08 722.986 192.479C722.986 192.877 722.851 193.211 722.582 193.48C722.324 193.75 721.972 193.885 721.527 193.885C721.082 193.885 720.73 193.75 720.472 193.48C720.215 193.211 720.086 192.877 720.086 192.479ZM728.214 207.209C728.214 205.381 728.566 203.734 729.269 202.27C729.984 200.805 730.986 199.668 732.275 198.859C733.576 198.039 735.047 197.629 736.687 197.629C739.218 197.629 741.269 198.52 742.839 200.301C744.41 202.07 745.195 204.42 745.195 207.35V207.789C745.195 209.629 744.838 211.287 744.123 212.764C743.42 214.229 742.423 215.359 741.134 216.156C739.845 216.953 738.375 217.352 736.722 217.352C734.203 217.352 732.152 216.467 730.57 214.697C729 212.916 728.214 210.561 728.214 207.631V207.209ZM730.324 207.789C730.324 210.062 730.91 211.932 732.082 213.396C733.265 214.85 734.812 215.576 736.722 215.576C738.621 215.576 740.156 214.85 741.328 213.396C742.511 211.932 743.103 210.004 743.103 207.613V207.209C743.103 205.756 742.834 204.426 742.295 203.219C741.755 202.012 741 201.08 740.027 200.424C739.054 199.756 737.941 199.422 736.687 199.422C734.812 199.422 733.283 200.16 732.099 201.637C730.916 203.102 730.324 205.023 730.324 207.402V207.789ZM750.441 215.734C750.441 215.324 750.57 214.979 750.828 214.697C751.097 214.404 751.466 214.258 751.935 214.258C752.404 214.258 752.773 214.404 753.042 214.697C753.312 214.979 753.447 215.324 753.447 215.734C753.447 216.145 753.312 216.484 753.042 216.754C752.773 217.012 752.404 217.141 751.935 217.141C751.466 217.141 751.097 217.012 750.828 216.754C750.57 216.484 750.441 216.145 750.441 215.734Z" fill="white"/>
</g>
<defs>
<filter id="filter0_d" x="0" y="0" width="886" height="269" filterUnits="userSpaceOnUse" color-interpolation-filters="sRGB">
<feFlood flood-opacity="0" result="BackgroundImageFix"/>
<feColorMatrix in="SourceAlpha" type="matrix" values="0 0 0 0 0 0 0 0 0 0 0 0 0 0 0 0 0 0 127 0"/>
<feOffset dx="3" dy="5"/>
<feGaussianBlur stdDeviation="6"/>
<feColorMatrix type="matrix" values="0 0 0 0 0 0 0 0 0 0 0 0 0 0 0 0 0 0 0.25 0"/>
<feBlend mode="normal" in2="BackgroundImageFix" result="effect1_dropShadow"/>
<feBlend mode="normal" in="SourceGraphic" in2="effect1_dropShadow" result="shape"/>
</filter>
</defs>
</svg>
