<svg width="862" height="245" viewBox="0 0 862 245" fill="none" xmlns="http://www.w3.org/2000/svg" style="
    background: black;
">
<rect width="862" height="245" fill="#282A36"/>
<rect width="862" height="245" fill="#282A36"/>
<path d="M296.219 88.9062H291L310 39.5H315.188L296.219 88.9062ZM314.969 88.9062H309.75L328.75 39.5H333.938L314.969 88.9062ZM296.219 153.906H291L310 104.5H315.188L296.219 153.906ZM314.969 153.906H309.75L328.75 104.5H333.938L314.969 153.906Z" fill="#6272A4"/>
<path d="M377 80.9688C375.896 82.5104 374.542 83.6771 372.938 84.4688C371.354 85.2604 369.51 85.6562 367.406 85.6562C363.281 85.6562 360.052 84.1667 357.719 81.1875C355.406 78.1875 354.25 74.25 354.25 69.375V68.7188C354.25 63.2812 355.406 58.8958 357.719 55.5625C360.052 52.2292 363.302 50.5625 367.469 50.5625C369.469 50.5625 371.229 50.9375 372.75 51.6875C374.292 52.4167 375.604 53.4792 376.688 54.875V41.0938L371.594 40.2188V36.25H376.688H382.844V80.1875L387.938 81.0625V85H377.5L377 80.9688ZM360.406 69.375C360.406 72.7708 361.104 75.5 362.5 77.5625C363.896 79.625 366.052 80.6562 368.969 80.6562C370.802 80.6562 372.344 80.2396 373.594 79.4062C374.844 78.5729 375.875 77.3958 376.688 75.875V60.1875C375.896 58.7708 374.865 57.6458 373.594 56.8125C372.323 55.9792 370.802 55.5625 369.031 55.5625C366.094 55.5625 363.917 56.7812 362.5 59.2188C361.104 61.6562 360.406 64.8229 360.406 68.7188V69.375ZM414.719 85C414.531 84.0833 414.385 83.2604 414.281 82.5312C414.177 81.8021 414.104 81.0729 414.062 80.3438C412.875 81.8646 411.385 83.1354 409.594 84.1562C407.823 85.1562 405.927 85.6562 403.906 85.6562C400.385 85.6562 397.708 84.8021 395.875 83.0938C394.042 81.3646 393.125 78.9375 393.125 75.8125C393.125 72.6042 394.417 70.1354 397 68.4062C399.604 66.6562 403.167 65.7812 407.688 65.7812H414.031V61.8438C414.031 59.8646 413.406 58.3021 412.156 57.1562C410.906 55.9896 409.167 55.4062 406.938 55.4062C405.396 55.4062 404.031 55.6042 402.844 56C401.677 56.3958 400.729 56.9375 400 57.625L399.344 61.1875H394.594V54.625C396.135 53.3958 398 52.4167 400.188 51.6875C402.375 50.9375 404.75 50.5625 407.312 50.5625C411.146 50.5625 414.25 51.5417 416.625 53.5C419 55.4583 420.188 58.2604 420.188 61.9062V78.1875C420.188 78.625 420.188 79.0521 420.188 79.4688C420.208 79.8854 420.24 80.3021 420.281 80.7188L422.781 81.0625V85H414.719ZM404.812 80.5C406.854 80.5 408.719 80.0104 410.406 79.0312C412.094 78.0521 413.302 76.875 414.031 75.5V69.9375H407.469C404.948 69.9375 402.948 70.5208 401.469 71.6875C400.01 72.8542 399.281 74.2708 399.281 75.9375C399.281 77.4167 399.74 78.5521 400.656 79.3438C401.573 80.1146 402.958 80.5 404.812 80.5ZM459.531 55.1562L456.5 55.625L443.625 90.1875C442.771 92.4583 441.542 94.4375 439.938 96.125C438.333 97.8125 436.177 98.6562 433.469 98.6562C432.99 98.6562 432.365 98.5938 431.594 98.4688C430.823 98.3646 430.229 98.2604 429.812 98.1562L430.438 93.3125C430.312 93.2917 430.677 93.3125 431.531 93.375C432.406 93.4375 432.958 93.4688 433.188 93.4688C434.5 93.4688 435.562 92.8958 436.375 91.75C437.188 90.625 437.896 89.3229 438.5 87.8438L439.969 84.3438L428.812 55.6562L425.719 55.1562V51.1875H439.375V55.1562L435.562 55.7812L441.406 72.4688L442.531 76.7812H442.719L449.75 55.7812L445.906 55.1562V51.1875H459.531V55.1562ZM462.875 40.2188V36.25H474.125V80.1875L479.219 81.0625V85H462.875V81.0625L467.969 80.1875V41.0938L462.875 40.2188ZM499.344 85.6562C494.635 85.6562 490.885 84.0938 488.094 80.9688C485.323 77.8229 483.938 73.75 483.938 68.75V67.375C483.938 62.5625 485.365 58.5625 488.219 55.375C491.094 52.1667 494.49 50.5625 498.406 50.5625C502.948 50.5625 506.385 51.9375 508.719 54.6875C511.073 57.4375 512.25 61.1042 512.25 65.6875V69.5312H490.312L490.219 69.6875C490.281 72.9375 491.104 75.6146 492.688 77.7188C494.271 79.8021 496.49 80.8438 499.344 80.8438C501.427 80.8438 503.25 80.5521 504.812 79.9688C506.396 79.3646 507.76 78.5417 508.906 77.5L511.312 81.5C510.104 82.6667 508.5 83.6562 506.5 84.4688C504.521 85.2604 502.135 85.6562 499.344 85.6562ZM498.406 55.4062C496.344 55.4062 494.583 56.2812 493.125 58.0312C491.667 59.7604 490.771 61.9375 490.438 64.5625L490.5 64.7188H506.094V63.9062C506.094 61.4896 505.448 59.4688 504.156 57.8438C502.865 56.2188 500.948 55.4062 498.406 55.4062ZM517.438 81.0625L522.531 80.1875V56.0312L517.438 55.1562V51.1875H528.031L528.469 56.2188C529.594 54.4271 531 53.0417 532.688 52.0625C534.396 51.0625 536.333 50.5625 538.5 50.5625C542.146 50.5625 544.969 51.6354 546.969 53.7812C548.969 55.9062 549.969 59.1979 549.969 63.6562V80.1875L555.062 81.0625V85H538.719V81.0625L543.812 80.1875V63.7812C543.812 60.8021 543.219 58.6875 542.031 57.4375C540.865 56.1875 539.073 55.5625 536.656 55.5625C534.885 55.5625 533.312 55.9896 531.938 56.8438C530.583 57.6979 529.5 58.8646 528.688 60.3438V80.1875L533.781 81.0625V85H517.438V81.0625Z" fill="#BD93F9"/>
<path d="M470.656 146.094V150H466.438V146.094H470.656ZM479.125 150V117.188H481.469L481.875 121.375C486.062 118.583 490.167 117.188 494.188 117.188C502.167 117.188 506.156 120.635 506.156 127.531V150H502.875V127.438C502.875 122.562 499.927 120.125 494.031 120.125C490.094 120.125 486.219 121.51 482.406 124.281V150H479.125ZM529.406 117.188C538.385 117.188 542.875 122.156 542.875 132.094C542.875 132.802 542.854 133.542 542.812 134.312H517.906C517.906 142.896 522.448 147.188 531.531 147.188C535.26 147.188 538.573 146.667 541.469 145.625V148.438C538.573 149.479 535.26 150 531.531 150C520.26 150 514.625 144.406 514.625 133.219C514.625 122.531 519.552 117.188 529.406 117.188ZM517.906 131.375H539.719C539.594 123.75 536.156 119.938 529.406 119.938C522.115 119.938 518.281 123.75 517.906 131.375ZM551.188 111.875H553.5L554.094 117.188H563.938V120H554.375V140.719C554.375 145.031 555.958 147.188 559.125 147.188H563.938V150H559.188C553.854 150 551.188 147.052 551.188 141.156V111.875Z" fill="#8BE9FD"/>
<path d="M128.092 198.416L115.594 193.09V190.928L130.448 197.572V199.277L115.594 205.939V203.76L128.092 198.416ZM160.047 202.828H148.428L145.791 210H143.524L153.209 184.406H155.266L164.952 210H162.702L160.047 202.828ZM149.096 200.982H159.362L154.229 187.043L149.096 200.982ZM183.705 205.623L184.022 207.258L184.444 205.535L189.014 190.98H190.807L195.324 205.412L195.817 207.416L196.221 205.57L200.123 190.98H202.303L196.766 210H194.973L190.086 194.918L189.858 193.881L189.629 194.936L184.83 210H183.037L177.518 190.98H179.68L183.705 205.623ZM214.738 210.352C213.121 210.352 211.656 209.953 210.344 209.156C209.043 208.359 208.029 207.252 207.303 205.834C206.576 204.404 206.213 202.805 206.213 201.035V200.279C206.213 198.451 206.565 196.805 207.268 195.34C207.983 193.875 208.973 192.727 210.238 191.895C211.504 191.051 212.875 190.629 214.352 190.629C216.66 190.629 218.488 191.42 219.836 193.002C221.195 194.572 221.875 196.723 221.875 199.453V200.631H208.305V201.035C208.305 203.191 208.92 204.99 210.151 206.432C211.393 207.861 212.951 208.576 214.826 208.576C215.951 208.576 216.942 208.371 217.797 207.961C218.664 207.551 219.449 206.895 220.152 205.992L221.471 206.994C219.924 209.232 217.68 210.352 214.738 210.352ZM214.352 192.422C212.77 192.422 211.434 193.002 210.344 194.162C209.266 195.322 208.61 196.881 208.375 198.838H219.783V198.609C219.725 196.781 219.203 195.293 218.219 194.145C217.235 192.996 215.945 192.422 214.352 192.422ZM242.361 200.684C242.361 203.648 241.705 206.004 240.393 207.75C239.08 209.484 237.316 210.352 235.102 210.352C232.453 210.352 230.449 209.367 229.09 207.398L229.002 210H227.033V183H229.125V193.74C230.461 191.666 232.441 190.629 235.066 190.629C237.316 190.629 239.092 191.49 240.393 193.213C241.705 194.924 242.361 197.309 242.361 200.367V200.684ZM240.252 200.314C240.252 197.807 239.766 195.873 238.793 194.514C237.82 193.143 236.449 192.457 234.68 192.457C233.332 192.457 232.19 192.791 231.252 193.459C230.315 194.115 229.606 195.082 229.125 196.359V204.938C230.18 207.328 232.043 208.523 234.715 208.523C236.449 208.523 237.803 207.838 238.775 206.467C239.76 205.096 240.252 203.045 240.252 200.314ZM259.49 205.166C259.49 204.123 259.068 203.285 258.225 202.652C257.393 202.02 256.133 201.527 254.445 201.176C252.758 200.812 251.445 200.402 250.508 199.945C249.582 199.477 248.891 198.908 248.434 198.24C247.988 197.572 247.766 196.764 247.766 195.814C247.766 194.314 248.393 193.078 249.646 192.105C250.9 191.121 252.506 190.629 254.463 190.629C256.584 190.629 258.283 191.156 259.561 192.211C260.85 193.254 261.494 194.619 261.494 196.307H259.385C259.385 195.193 258.916 194.268 257.979 193.529C257.053 192.791 255.881 192.422 254.463 192.422C253.08 192.422 251.967 192.732 251.123 193.354C250.291 193.963 249.875 194.76 249.875 195.744C249.875 196.693 250.221 197.432 250.912 197.959C251.615 198.475 252.887 198.949 254.727 199.383C256.578 199.816 257.961 200.279 258.875 200.771C259.801 201.264 260.486 201.855 260.932 202.547C261.377 203.238 261.6 204.076 261.6 205.061C261.6 206.666 260.949 207.949 259.648 208.91C258.359 209.871 256.672 210.352 254.586 210.352C252.371 210.352 250.572 209.818 249.189 208.752C247.818 207.674 247.133 206.314 247.133 204.674H249.242C249.324 205.904 249.84 206.865 250.789 207.557C251.75 208.236 253.016 208.576 254.586 208.576C256.051 208.576 257.234 208.254 258.137 207.609C259.039 206.965 259.49 206.15 259.49 205.166ZM269.781 210H267.672V190.98H269.781V210ZM267.303 185.479C267.303 185.08 267.432 184.746 267.689 184.477C267.947 184.195 268.299 184.055 268.744 184.055C269.189 184.055 269.541 184.195 269.799 184.477C270.068 184.746 270.203 185.08 270.203 185.479C270.203 185.877 270.068 186.211 269.799 186.48C269.541 186.75 269.189 186.885 268.744 186.885C268.299 186.885 267.947 186.75 267.689 186.48C267.432 186.211 267.303 185.877 267.303 185.479ZM279.861 186.111V190.98H283.799V192.703H279.861V205.377C279.861 206.432 280.049 207.217 280.424 207.732C280.81 208.248 281.449 208.506 282.34 208.506C282.691 208.506 283.26 208.447 284.045 208.33L284.133 210.053C283.582 210.252 282.832 210.352 281.883 210.352C280.441 210.352 279.392 209.936 278.736 209.104C278.08 208.26 277.752 207.023 277.752 205.395V192.703H274.254V190.98H277.752V186.111H279.861ZM296.603 210.352C294.986 210.352 293.521 209.953 292.209 209.156C290.908 208.359 289.894 207.252 289.168 205.834C288.441 204.404 288.078 202.805 288.078 201.035V200.279C288.078 198.451 288.429 196.805 289.133 195.34C289.847 193.875 290.838 192.727 292.103 191.895C293.369 191.051 294.74 190.629 296.217 190.629C298.525 190.629 300.353 191.42 301.701 193.002C303.06 194.572 303.74 196.723 303.74 199.453V200.631H290.17V201.035C290.17 203.191 290.785 204.99 292.015 206.432C293.258 207.861 294.816 208.576 296.691 208.576C297.816 208.576 298.806 208.371 299.662 207.961C300.529 207.551 301.314 206.895 302.017 205.992L303.336 206.994C301.789 209.232 299.545 210.352 296.603 210.352ZM296.217 192.422C294.635 192.422 293.299 193.002 292.209 194.162C291.131 195.322 290.474 196.881 290.24 198.838H301.648V198.609C301.59 196.781 301.068 195.293 300.084 194.145C299.099 192.996 297.81 192.422 296.217 192.422ZM320.261 210V192.703H317.115V190.98H320.261V188.678C320.261 186.732 320.754 185.238 321.738 184.195C322.734 183.152 324.117 182.631 325.886 182.631C326.683 182.631 327.427 182.73 328.119 182.93L327.961 184.688C327.375 184.547 326.736 184.477 326.045 184.477C324.884 184.477 323.982 184.84 323.337 185.566C322.693 186.281 322.371 187.301 322.371 188.625V190.98H326.906V192.703H322.371V210H320.261ZM330.587 200.209C330.587 198.381 330.939 196.734 331.642 195.27C332.357 193.805 333.359 192.668 334.648 191.859C335.949 191.039 337.419 190.629 339.06 190.629C341.591 190.629 343.642 191.52 345.212 193.301C346.783 195.07 347.568 197.42 347.568 200.35V200.789C347.568 202.629 347.21 204.287 346.496 205.764C345.792 207.229 344.796 208.359 343.507 209.156C342.218 209.953 340.748 210.352 339.095 210.352C336.576 210.352 334.525 209.467 332.943 207.697C331.373 205.916 330.587 203.561 330.587 200.631V200.209ZM332.697 200.789C332.697 203.062 333.283 204.932 334.455 206.396C335.638 207.85 337.185 208.576 339.095 208.576C340.994 208.576 342.529 207.85 343.701 206.396C344.884 204.932 345.476 203.004 345.476 200.613V200.209C345.476 198.756 345.207 197.426 344.667 196.219C344.128 195.012 343.373 194.08 342.4 193.424C341.427 192.756 340.314 192.422 339.06 192.422C337.185 192.422 335.656 193.16 334.472 194.637C333.289 196.102 332.697 198.023 332.697 200.402V200.789ZM361.796 192.773C361.351 192.691 360.876 192.65 360.372 192.65C359.06 192.65 357.947 193.02 357.033 193.758C356.13 194.484 355.486 195.545 355.099 196.939V210H353.007V190.98H355.064L355.099 194.004C356.212 191.754 357.999 190.629 360.46 190.629C361.046 190.629 361.509 190.705 361.849 190.857L361.796 192.773ZM375.206 200.314C375.206 197.361 375.863 195.012 377.175 193.266C378.499 191.508 380.292 190.629 382.554 190.629C385.12 190.629 387.077 191.643 388.425 193.67V183H390.517V210H388.548L388.46 207.469C387.113 209.391 385.132 210.352 382.519 210.352C380.327 210.352 378.558 209.473 377.21 207.715C375.874 205.945 375.206 203.561 375.206 200.561V200.314ZM377.333 200.684C377.333 203.109 377.82 205.025 378.792 206.432C379.765 207.826 381.136 208.523 382.906 208.523C385.495 208.523 387.335 207.381 388.425 205.096V196.166C387.335 193.693 385.507 192.457 382.941 192.457C381.171 192.457 379.794 193.154 378.81 194.549C377.825 195.932 377.333 197.977 377.333 200.684ZM409.14 210C408.929 209.402 408.794 208.518 408.736 207.346C407.997 208.307 407.054 209.051 405.905 209.578C404.769 210.094 403.562 210.352 402.284 210.352C400.456 210.352 398.974 209.842 397.837 208.822C396.712 207.803 396.15 206.514 396.15 204.955C396.15 203.104 396.917 201.639 398.452 200.561C399.999 199.482 402.15 198.943 404.904 198.943H408.718V196.781C408.718 195.422 408.296 194.355 407.452 193.582C406.62 192.797 405.402 192.404 403.796 192.404C402.331 192.404 401.118 192.779 400.157 193.529C399.196 194.279 398.716 195.182 398.716 196.236L396.607 196.219C396.607 194.707 397.31 193.4 398.716 192.299C400.122 191.186 401.851 190.629 403.902 190.629C406.023 190.629 407.693 191.162 408.911 192.229C410.142 193.283 410.775 194.76 410.81 196.658V205.658C410.81 207.498 411.003 208.875 411.39 209.789V210H409.14ZM402.53 208.488C403.937 208.488 405.191 208.148 406.292 207.469C407.405 206.789 408.214 205.881 408.718 204.744V200.561H404.956C402.859 200.584 401.218 200.971 400.034 201.721C398.851 202.459 398.259 203.479 398.259 204.779C398.259 205.846 398.652 206.73 399.437 207.434C400.234 208.137 401.265 208.488 402.53 208.488ZM423.263 206.977L428.818 190.98H431.085L422.964 213.234L422.542 214.219C421.499 216.527 419.888 217.682 417.708 217.682C417.204 217.682 416.665 217.6 416.091 217.436L416.073 215.695L417.163 215.801C418.194 215.801 419.026 215.543 419.659 215.027C420.304 214.523 420.849 213.65 421.294 212.408L422.226 209.842L415.054 190.98H417.357L423.263 206.977ZM437.79 210H435.681V183H437.79V210ZM451.966 210.352C450.349 210.352 448.884 209.953 447.571 209.156C446.27 208.359 445.257 207.252 444.53 205.834C443.804 204.404 443.44 202.805 443.44 201.035V200.279C443.44 198.451 443.792 196.805 444.495 195.34C445.21 193.875 446.2 192.727 447.466 191.895C448.731 191.051 450.103 190.629 451.579 190.629C453.888 190.629 455.716 191.42 457.063 193.002C458.423 194.572 459.103 196.723 459.103 199.453V200.631H445.532V201.035C445.532 203.191 446.147 204.99 447.378 206.432C448.62 207.861 450.179 208.576 452.054 208.576C453.179 208.576 454.169 208.371 455.024 207.961C455.892 207.551 456.677 206.895 457.38 205.992L458.698 206.994C457.151 209.232 454.907 210.352 451.966 210.352ZM451.579 192.422C449.997 192.422 448.661 193.002 447.571 194.162C446.493 195.322 445.837 196.881 445.603 198.838H457.011V198.609C456.952 196.781 456.431 195.293 455.446 194.145C454.462 192.996 453.173 192.422 451.579 192.422ZM466.282 190.98L466.352 194.232C467.067 193.061 467.958 192.17 469.024 191.561C470.091 190.939 471.268 190.629 472.557 190.629C474.597 190.629 476.114 191.203 477.11 192.352C478.106 193.5 478.61 195.223 478.622 197.52V210H476.53V197.502C476.518 195.803 476.155 194.537 475.44 193.705C474.737 192.873 473.606 192.457 472.048 192.457C470.747 192.457 469.593 192.867 468.585 193.688C467.589 194.496 466.85 195.592 466.37 196.975V210H464.278V190.98H466.282ZM483.341 190.682L482.093 189.768C483.147 188.35 483.692 186.861 483.727 185.303V183H485.802V184.775C485.802 187.225 484.981 189.193 483.341 190.682ZM500.645 205.166C500.645 204.123 500.223 203.285 499.38 202.652C498.548 202.02 497.288 201.527 495.6 201.176C493.913 200.812 492.6 200.402 491.663 199.945C490.737 199.477 490.046 198.908 489.589 198.24C489.143 197.572 488.921 196.764 488.921 195.814C488.921 194.314 489.548 193.078 490.801 192.105C492.055 191.121 493.661 190.629 495.618 190.629C497.739 190.629 499.438 191.156 500.716 192.211C502.005 193.254 502.649 194.619 502.649 196.307H500.54C500.54 195.193 500.071 194.268 499.134 193.529C498.208 192.791 497.036 192.422 495.618 192.422C494.235 192.422 493.122 192.732 492.278 193.354C491.446 193.963 491.03 194.76 491.03 195.744C491.03 196.693 491.376 197.432 492.067 197.959C492.77 198.475 494.042 198.949 495.882 199.383C497.733 199.816 499.116 200.279 500.03 200.771C500.956 201.264 501.641 201.855 502.087 202.547C502.532 203.238 502.755 204.076 502.755 205.061C502.755 206.666 502.104 207.949 500.803 208.91C499.514 209.871 497.827 210.352 495.741 210.352C493.526 210.352 491.727 209.818 490.344 208.752C488.973 207.674 488.288 206.314 488.288 204.674H490.397C490.479 205.904 490.995 206.865 491.944 207.557C492.905 208.236 494.171 208.576 495.741 208.576C497.206 208.576 498.389 208.254 499.292 207.609C500.194 206.965 500.645 206.15 500.645 205.166ZM522.967 205.623L523.284 207.258L523.706 205.535L528.276 190.98H530.069L534.586 205.412L535.079 207.416L535.483 205.57L539.385 190.98H541.565L536.028 210H534.235L529.348 194.918L529.12 193.881L528.891 194.936L524.092 210H522.299L516.78 190.98H518.942L522.967 205.623ZM554 210.352C552.383 210.352 550.918 209.953 549.606 209.156C548.305 208.359 547.291 207.252 546.565 205.834C545.838 204.404 545.475 202.805 545.475 201.035V200.279C545.475 198.451 545.827 196.805 546.53 195.34C547.245 193.875 548.235 192.727 549.5 191.895C550.766 191.051 552.137 190.629 553.614 190.629C555.922 190.629 557.75 191.42 559.098 193.002C560.457 194.572 561.137 196.723 561.137 199.453V200.631H547.567V201.035C547.567 203.191 548.182 204.99 549.413 206.432C550.655 207.861 552.213 208.576 554.088 208.576C555.213 208.576 556.204 208.371 557.059 207.961C557.926 207.551 558.711 206.895 559.415 205.992L560.733 206.994C559.186 209.232 556.942 210.352 554 210.352ZM553.614 192.422C552.032 192.422 550.696 193.002 549.606 194.162C548.528 195.322 547.872 196.881 547.637 198.838H559.045V198.609C558.987 196.781 558.465 195.293 557.481 194.145C556.497 192.996 555.207 192.422 553.614 192.422ZM581.623 200.684C581.623 203.648 580.967 206.004 579.655 207.75C578.342 209.484 576.578 210.352 574.364 210.352C571.715 210.352 569.711 209.367 568.352 207.398L568.264 210H566.295V183H568.387V193.74C569.723 191.666 571.703 190.629 574.328 190.629C576.578 190.629 578.354 191.49 579.655 193.213C580.967 194.924 581.623 197.309 581.623 200.367V200.684ZM579.514 200.314C579.514 197.807 579.028 195.873 578.055 194.514C577.082 193.143 575.711 192.457 573.942 192.457C572.594 192.457 571.452 192.791 570.514 193.459C569.577 194.115 568.868 195.082 568.387 196.359V204.938C569.442 207.328 571.305 208.523 573.977 208.523C575.711 208.523 577.065 207.838 578.037 206.467C579.022 205.096 579.514 203.045 579.514 200.314ZM593.901 199.594H585.481V197.818H593.901V199.594ZM614.035 200.684C614.035 203.648 613.379 206.004 612.067 207.75C610.754 209.484 608.996 210.352 606.793 210.352C604.192 210.352 602.199 209.438 600.817 207.609V217.312H598.725V190.98H600.676L600.781 193.67C602.153 191.643 604.139 190.629 606.74 190.629C609.014 190.629 610.795 191.49 612.084 193.213C613.385 194.936 614.035 197.326 614.035 200.385V200.684ZM611.926 200.314C611.926 197.889 611.428 195.973 610.432 194.566C609.436 193.16 608.047 192.457 606.266 192.457C604.977 192.457 603.869 192.768 602.944 193.389C602.018 194.01 601.309 194.912 600.817 196.096V205.219C601.321 206.309 602.041 207.141 602.979 207.715C603.916 208.289 605.024 208.576 606.301 208.576C608.071 208.576 609.448 207.873 610.432 206.467C611.428 205.049 611.926 202.998 611.926 200.314ZM618.631 200.209C618.631 198.381 618.983 196.734 619.686 195.27C620.401 193.805 621.402 192.668 622.692 191.859C623.992 191.039 625.463 190.629 627.104 190.629C629.635 190.629 631.686 191.52 633.256 193.301C634.826 195.07 635.611 197.42 635.611 200.35V200.789C635.611 202.629 635.254 204.287 634.539 205.764C633.836 207.229 632.84 208.359 631.551 209.156C630.262 209.953 628.791 210.352 627.139 210.352C624.619 210.352 622.568 209.467 620.986 207.697C619.416 205.916 618.631 203.561 618.631 200.631V200.209ZM620.74 200.789C620.74 203.062 621.326 204.932 622.498 206.396C623.682 207.85 625.229 208.576 627.139 208.576C629.037 208.576 630.572 207.85 631.744 206.396C632.928 204.932 633.52 203.004 633.52 200.613V200.209C633.52 198.756 633.25 197.426 632.711 196.219C632.172 195.012 631.416 194.08 630.443 193.424C629.471 192.756 628.358 192.422 627.104 192.422C625.229 192.422 623.699 193.16 622.516 194.637C621.332 196.102 620.74 198.023 620.74 200.402V200.789ZM649.84 192.773C649.395 192.691 648.92 192.65 648.416 192.65C647.104 192.65 645.99 193.02 645.076 193.758C644.174 194.484 643.529 195.545 643.143 196.939V210H641.051V190.98H643.107L643.143 194.004C644.256 191.754 646.043 190.629 648.504 190.629C649.09 190.629 649.553 190.705 649.893 190.857L649.84 192.773ZM658.408 186.111V190.98H662.346V192.703H658.408V205.377C658.408 206.432 658.596 207.217 658.971 207.732C659.357 208.248 659.996 208.506 660.887 208.506C661.238 208.506 661.807 208.447 662.592 208.33L662.68 210.053C662.129 210.252 661.379 210.352 660.43 210.352C658.988 210.352 657.939 209.936 657.283 209.104C656.627 208.26 656.299 207.023 656.299 205.395V192.703H652.801V190.98H656.299V186.111H658.408ZM669.297 210V192.703H666.15V190.98H669.297V188.678C669.297 186.732 669.789 185.238 670.773 184.195C671.769 183.152 673.152 182.631 674.922 182.631C675.719 182.631 676.463 182.73 677.154 182.93L676.996 184.688C676.41 184.547 675.771 184.477 675.08 184.477C673.92 184.477 673.018 184.84 672.373 185.566C671.728 186.281 671.406 187.301 671.406 188.625V190.98H675.941V192.703H671.406V210H669.297ZM679.623 200.209C679.623 198.381 679.974 196.734 680.678 195.27C681.392 193.805 682.394 192.668 683.683 191.859C684.984 191.039 686.455 190.629 688.096 190.629C690.627 190.629 692.678 191.52 694.248 193.301C695.818 195.07 696.603 197.42 696.603 200.35V200.789C696.603 202.629 696.246 204.287 695.531 205.764C694.828 207.229 693.832 208.359 692.543 209.156C691.254 209.953 689.783 210.352 688.131 210.352C685.611 210.352 683.56 209.467 681.978 207.697C680.408 205.916 679.623 203.561 679.623 200.631V200.209ZM681.732 200.789C681.732 203.062 682.318 204.932 683.49 206.396C684.674 207.85 686.221 208.576 688.131 208.576C690.029 208.576 691.564 207.85 692.736 206.396C693.92 204.932 694.512 203.004 694.512 200.613V200.209C694.512 198.756 694.242 197.426 693.703 196.219C693.164 195.012 692.408 194.08 691.435 193.424C690.463 192.756 689.349 192.422 688.096 192.422C686.221 192.422 684.691 193.16 683.508 194.637C682.324 196.102 681.732 198.023 681.732 200.402V200.789ZM704.398 210H702.289V183H704.398V210ZM713.564 210H711.455V190.98H713.564V210ZM711.086 185.479C711.086 185.08 711.215 184.746 711.472 184.477C711.73 184.195 712.082 184.055 712.527 184.055C712.972 184.055 713.324 184.195 713.582 184.477C713.851 184.746 713.986 185.08 713.986 185.479C713.986 185.877 713.851 186.211 713.582 186.48C713.324 186.75 712.972 186.885 712.527 186.885C712.082 186.885 711.73 186.75 711.472 186.48C711.215 186.211 711.086 185.877 711.086 185.479ZM719.214 200.209C719.214 198.381 719.566 196.734 720.269 195.27C720.984 193.805 721.986 192.668 723.275 191.859C724.576 191.039 726.047 190.629 727.687 190.629C730.218 190.629 732.269 191.52 733.839 193.301C735.41 195.07 736.195 197.42 736.195 200.35V200.789C736.195 202.629 735.838 204.287 735.123 205.764C734.42 207.229 733.423 208.359 732.134 209.156C730.845 209.953 729.375 210.352 727.722 210.352C725.203 210.352 723.152 209.467 721.57 207.697C720 205.916 719.214 203.561 719.214 200.631V200.209ZM721.324 200.789C721.324 203.062 721.91 204.932 723.082 206.396C724.265 207.85 725.812 208.576 727.722 208.576C729.621 208.576 731.156 207.85 732.328 206.396C733.511 204.932 734.103 203.004 734.103 200.613V200.209C734.103 198.756 733.834 197.426 733.295 196.219C732.755 195.012 732 194.08 731.027 193.424C730.054 192.756 728.941 192.422 727.687 192.422C725.812 192.422 724.283 193.16 723.099 194.637C721.916 196.102 721.324 198.023 721.324 200.402V200.789ZM741.441 208.734C741.441 208.324 741.57 207.979 741.828 207.697C742.097 207.404 742.466 207.258 742.935 207.258C743.404 207.258 743.773 207.404 744.042 207.697C744.312 207.979 744.447 208.324 744.447 208.734C744.447 209.145 744.312 209.484 744.042 209.754C743.773 210.012 743.404 210.141 742.935 210.141C742.466 210.141 742.097 210.012 741.828 209.754C741.57 209.484 741.441 209.145 741.441 208.734Z" fill="white"/>
</svg>
