<svg xmlns="http://www.w3.org/2000/svg" viewBox="0 0 1600 900">
<!--<rect width="1600" height="900" fill="#282a36"/>-->
    <polygon fill="#ff79c6" points="957 450 539 900 1396 900"/>
    <polygon fill="#bd93f9" points="957 450 872.9 900 1396 900"/>
    <polygon fill="#dc93b7" points="-60 900 398 662 816 900"/>
    <polygon fill="#b3a4fa" points="337 900 398 662 816 900"/>
    <polygon fill="#b9ada8" points="1203 546 1552 900 876 900"/>
    <polygon fill="#a9b5fb" points="1203 546 1552 900 1162 900"/>
    <polygon fill="#96c699" points="641 695 886 900 367 900"/>
    <polygon fill="#9fc7fb" points="587 900 641 695 886 900"/>
    <polygon fill="#73e08a" points="1710 900 1401 632 1096 900"/>
    <polygon fill="#95d8fc" points="1710 900 1401 632 1365 900"/>
    <polygon fill="#50fa7b" points="1210 900 971 687 725 900"/>
    <polygon fill="#8be9fd" points="943 900 1210 900 971 687"/>
</svg>
