<svg width="273" height="118" viewBox="0 0 273 118" fill="none" xmlns="http://www.w3.org/2000/svg">
<path d="M5.21875 52.9062H0L19 3.5H24.1875L5.21875 52.9062ZM23.9688 52.9062H18.75L37.75 3.5H42.9375L23.9688 52.9062ZM5.21875 117.906H0L19 68.5H24.1875L5.21875 117.906ZM23.9688 117.906H18.75L37.75 68.5H42.9375L23.9688 117.906Z" fill="#6272A4"/>
<path d="M86 44.9688C84.8958 46.5104 83.5417 47.6771 81.9375 48.4688C80.3542 49.2604 78.5104 49.6562 76.4062 49.6562C72.2812 49.6562 69.0521 48.1667 66.7188 45.1875C64.4062 42.1875 63.25 38.25 63.25 33.375V32.7188C63.25 27.2812 64.4062 22.8958 66.7188 19.5625C69.0521 16.2292 72.3021 14.5625 76.4688 14.5625C78.4688 14.5625 80.2292 14.9375 81.75 15.6875C83.2917 16.4167 84.6042 17.4792 85.6875 18.875V5.09375L80.5938 4.21875V0.25H85.6875H91.8438V44.1875L96.9375 45.0625V49H86.5L86 44.9688ZM69.4062 33.375C69.4062 36.7708 70.1042 39.5 71.5 41.5625C72.8958 43.625 75.0521 44.6562 77.9688 44.6562C79.8021 44.6562 81.3438 44.2396 82.5938 43.4062C83.8438 42.5729 84.875 41.3958 85.6875 39.875V24.1875C84.8958 22.7708 83.8646 21.6458 82.5938 20.8125C81.3229 19.9792 79.8021 19.5625 78.0312 19.5625C75.0938 19.5625 72.9167 20.7812 71.5 23.2188C70.1042 25.6562 69.4062 28.8229 69.4062 32.7188V33.375ZM123.719 49C123.531 48.0833 123.385 47.2604 123.281 46.5312C123.177 45.8021 123.104 45.0729 123.062 44.3438C121.875 45.8646 120.385 47.1354 118.594 48.1562C116.823 49.1562 114.927 49.6562 112.906 49.6562C109.385 49.6562 106.708 48.8021 104.875 47.0938C103.042 45.3646 102.125 42.9375 102.125 39.8125C102.125 36.6042 103.417 34.1354 106 32.4062C108.604 30.6562 112.167 29.7812 116.688 29.7812H123.031V25.8438C123.031 23.8646 122.406 22.3021 121.156 21.1562C119.906 19.9896 118.167 19.4062 115.938 19.4062C114.396 19.4062 113.031 19.6042 111.844 20C110.677 20.3958 109.729 20.9375 109 21.625L108.344 25.1875H103.594V18.625C105.135 17.3958 107 16.4167 109.188 15.6875C111.375 14.9375 113.75 14.5625 116.312 14.5625C120.146 14.5625 123.25 15.5417 125.625 17.5C128 19.4583 129.188 22.2604 129.188 25.9062V42.1875C129.188 42.625 129.188 43.0521 129.188 43.4688C129.208 43.8854 129.24 44.3021 129.281 44.7188L131.781 45.0625V49H123.719ZM113.812 44.5C115.854 44.5 117.719 44.0104 119.406 43.0312C121.094 42.0521 122.302 40.875 123.031 39.5V33.9375H116.469C113.948 33.9375 111.948 34.5208 110.469 35.6875C109.01 36.8542 108.281 38.2708 108.281 39.9375C108.281 41.4167 108.74 42.5521 109.656 43.3438C110.573 44.1146 111.958 44.5 113.812 44.5ZM168.531 19.1562L165.5 19.625L152.625 54.1875C151.771 56.4583 150.542 58.4375 148.938 60.125C147.333 61.8125 145.177 62.6562 142.469 62.6562C141.99 62.6562 141.365 62.5938 140.594 62.4688C139.823 62.3646 139.229 62.2604 138.812 62.1562L139.438 57.3125C139.312 57.2917 139.677 57.3125 140.531 57.375C141.406 57.4375 141.958 57.4688 142.188 57.4688C143.5 57.4688 144.562 56.8958 145.375 55.75C146.188 54.625 146.896 53.3229 147.5 51.8438L148.969 48.3438L137.812 19.6562L134.719 19.1562V15.1875H148.375V19.1562L144.562 19.7812L150.406 36.4688L151.531 40.7812H151.719L158.75 19.7812L154.906 19.1562V15.1875H168.531V19.1562ZM171.875 4.21875V0.25H183.125V44.1875L188.219 45.0625V49H171.875V45.0625L176.969 44.1875V5.09375L171.875 4.21875ZM208.344 49.6562C203.635 49.6562 199.885 48.0938 197.094 44.9688C194.323 41.8229 192.938 37.75 192.938 32.75V31.375C192.938 26.5625 194.365 22.5625 197.219 19.375C200.094 16.1667 203.49 14.5625 207.406 14.5625C211.948 14.5625 215.385 15.9375 217.719 18.6875C220.073 21.4375 221.25 25.1042 221.25 29.6875V33.5312H199.312L199.219 33.6875C199.281 36.9375 200.104 39.6146 201.688 41.7188C203.271 43.8021 205.49 44.8438 208.344 44.8438C210.427 44.8438 212.25 44.5521 213.812 43.9688C215.396 43.3646 216.76 42.5417 217.906 41.5L220.312 45.5C219.104 46.6667 217.5 47.6562 215.5 48.4688C213.521 49.2604 211.135 49.6562 208.344 49.6562ZM207.406 19.4062C205.344 19.4062 203.583 20.2812 202.125 22.0312C200.667 23.7604 199.771 25.9375 199.438 28.5625L199.5 28.7188H215.094V27.9062C215.094 25.4896 214.448 23.4688 213.156 21.8438C211.865 20.2188 209.948 19.4062 207.406 19.4062ZM226.438 45.0625L231.531 44.1875V20.0312L226.438 19.1562V15.1875H237.031L237.469 20.2188C238.594 18.4271 240 17.0417 241.688 16.0625C243.396 15.0625 245.333 14.5625 247.5 14.5625C251.146 14.5625 253.969 15.6354 255.969 17.7812C257.969 19.9062 258.969 23.1979 258.969 27.6562V44.1875L264.062 45.0625V49H247.719V45.0625L252.812 44.1875V27.7812C252.812 24.8021 252.219 22.6875 251.031 21.4375C249.865 20.1875 248.073 19.5625 245.656 19.5625C243.885 19.5625 242.312 19.9896 240.938 20.8438C239.583 21.6979 238.5 22.8646 237.688 24.3438V44.1875L242.781 45.0625V49H226.438V45.0625Z" fill="#BD93F9"/>
<path d="M179.656 110.094V114H175.438V110.094H179.656ZM188.125 114V81.1875H190.469L190.875 85.375C195.062 82.5833 199.167 81.1875 203.188 81.1875C211.167 81.1875 215.156 84.6354 215.156 91.5312V114H211.875V91.4375C211.875 86.5625 208.927 84.125 203.031 84.125C199.094 84.125 195.219 85.5104 191.406 88.2812V114H188.125ZM238.406 81.1875C247.385 81.1875 251.875 86.1562 251.875 96.0938C251.875 96.8021 251.854 97.5417 251.812 98.3125H226.906C226.906 106.896 231.448 111.188 240.531 111.188C244.26 111.188 247.573 110.667 250.469 109.625V112.438C247.573 113.479 244.26 114 240.531 114C229.26 114 223.625 108.406 223.625 97.2188C223.625 86.5312 228.552 81.1875 238.406 81.1875ZM226.906 95.375H248.719C248.594 87.75 245.156 83.9375 238.406 83.9375C231.115 83.9375 227.281 87.75 226.906 95.375ZM260.188 75.875H262.5L263.094 81.1875H272.938V84H263.375V104.719C263.375 109.031 264.958 111.188 268.125 111.188H272.938V114H268.188C262.854 114 260.188 111.052 260.188 105.156V75.875Z" fill="#8BE9FD"/>
</svg>
